/* XPM */
static char *_a093620edc4456df650d0879090ce3feEu5kARZoenwTO40[] = {
/* columns rows colors chars-per-pixel */
"64 64 104 2 ",
"   c #20160D",
".  c #251B14",
"X  c #2A1D15",
"o  c #281E18",
"O  c #2D241D",
"+  c #31261E",
"@  c #342A1F",
"#  c #2F2820",
"$  c #312720",
"%  c #352B24",
"&  c #392D26",
"*  c #362C29",
"=  c #392F29",
"-  c #3A3026",
";  c #373028",
":  c #3D332C",
">  c #3F3430",
",  c #3F3830",
"<  c #41362E",
"1  c #42382F",
"2  c #423730",
"3  c #453B34",
"4  c #493D36",
"5  c #4A3E39",
"6  c #4B4037",
"7  c #474038",
"8  c #4C433C",
"9  c #51453E",
"0  c #53493F",
"q  c #4F4642",
"w  c #4F4840",
"e  c #514741",
"r  c #554B44",
"t  c #594D46",
"y  c #574D49",
"u  c #5A4F49",
"i  c #5A5147",
"p  c #5D534C",
"a  c #5F5350",
"s  c #5F5850",
"d  c #615547",
"f  c #61554E",
"g  c #63594E",
"h  c #625651",
"j  c #695753",
"k  c #655B54",
"l  c #695D56",
"z  c #675C5A",
"x  c #6A5E59",
"c  c #715F5B",
"v  c #6A6157",
"b  c #6D635C",
"n  c #71655E",
"m  c #72685F",
"M  c #7A6E5D",
"N  c #7F735D",
"B  c #6F6460",
"V  c #726661",
"C  c #786662",
"Z  c #746A63",
"A  c #796C66",
"S  c #776C68",
"D  c #7B6E69",
"F  c #7A7066",
"G  c #7D726B",
"H  c #7E7570",
"J  c #7F7870",
"K  c #816F6B",
"L  c #847766",
"P  c #867967",
"I  c #81746D",
"U  c #83796E",
"Y  c #8A7D6D",
"T  c #837671",
"R  c #887672",
"E  c #857A73",
"W  c #897C75",
"Q  c #8B7E78",
"!  c #91856F",
"~  c #8C8176",
"^  c #8D827B",
"/  c #928575",
"(  c #91847D",
")  c #93897E",
"_  c #998C7C",
"`  c #9E927F",
"'  c #8E8580",
"]  c #938681",
"[  c #988682",
"{  c #958A83",
"}  c #998D85",
"|  c #9B8F89",
" . c #9B9186",
".. c #9D928A",
"X. c #A19587",
"o. c #A69986",
"O. c #A1958D",
"+. c #A3998F",
"@. c #A49691",
"#. c #A59992",
"$. c #AA9C96",
"%. c #AC9F99",
"&. c #B19F9B",
"*. c #AEA29A",
/* pixels */
"b v s v V G Z k Z J J S J B w Z m 3 i U ~ ^ b i ~ Z U v Z ~ ) ~ ^ m p D D ^ R Q | { H x V j u z G Z Q E G w k J S G s Z Z 8 y p ",
"$ O # # O * , , , , ; # , ; . , 1 O 1 6 ; @ @ : 6 1 6 + : ; : 6 e : $ 3 = 3 5 e 5 5 > > 3 > : 3 5 2 8 3 w ; , 3 ; , # 8 w ; 7 8 ",
"p 7 w k b S V r 8 w w w v s 7 s i : p F m v 8 1 r i s 3 p i r b y 3 = 9 3 8 8 y u 5 3 3 % $ $ % O + , * 7 , q , y s 3 p b p b b ",
"S p z ^ ] | ' b k s b b G H k Z { p f F ~ { F p F ~ ) v ) ) E ) ^ v y Z D ' E G { G Z x q 5 e 5 8 r k y s y b Z Z B 8 s Z k Z Z ",
"k e j V n b I R n l x j v b a x ^ g v Z F U b i U { ) v ^  .E G ..S r x V ^ E T E S H T b b Z B B v Z b b y v S v s 7 s S s B b ",
"h y p C T K I ( I D Q Q J H l h n 0 v F Z Z g 0 G ~ ^ v ~  .~ F ^ Z u h r B G R V Z T ' Q H G D Z s s p v y v Z B v 8 S ^ b B B ",
"l j t D @.[ K R R C R R K K f 5 g - : 1 1 e 0 8 p i k 0 v m v k z k h b p Z H ' H ' { | { R S D b s v y s s B Z B s , b J s s b ",
"R W C R &.[ R #.@.K C j j C j p 0 : 0 r 1 3 1 : :   @ @ ; O + $ $ = 5 V x H H T Q | { ' { E Z E s S E s p w b b J s , V E s S { ",
"} K I [ K K ( C Q Q Q Q K j j f v & m ) E F i p v v 7 v J ~ U M Q S 2 b k Z b S H ~ E G H T Z Z k Z E B q w k b J S # b { b S E ",
"R C R | Q Q Q G R R D A c j f j M 1 Z ^ E ~ v v ~ G 1 i Z } ....%.^ 5 k p D D Q R ] Q H E Q T T k s b b s s v s V b # v ' k B H ",
"p u j V C j i y j u t u u t u f p : v G U E v g ..~ 6 i G ..+...T C 3 z a b k z h Z S S H G C x r w p s q e s s V v # s J s s b ",
"C C D D R I b J R I A C C C c u y 6 m ~ ~ ^ m p E Z i p G ^ G v H V 2 r r x C S x G G Z D G V b v s k k w 8 s B S b , b J s Z H ",
"t y p y k k w V a y w 8 r u e 2 % ; 0 d g g 9 1 i i 0 0 v b r 3 p e $ : 2 e u t a z u 5 5 8 e r q , , , ; ; , ; , ; . 8 s 7 y s ",
"3 > 8 < 7 , O 7 , : # . o * = % O O O - 1 : ; ; - - 1 O 1 6 3 3 3 5 = 3 5 5 3 % o : : % = : & = O * w 8 , # ; ; , : , p y , 8 w ",
"^ J | E J J s E ^ { J s 7 8 u y v i 6 i v k p g U J ~ p Z U W } ^ E z a h x D b : u x x V b a u * v ..{ z k S ^ E E ^ { ~ b G J ",
"J b ~ F m G b ^ b ^ ^ k 3 3 r p Z d 1 p F m v k ^ E ) g Z G E ] R Q Z v V b A h n T I V n x z l # s ' E b V E E S S G G k y B E ",
"` M N M g i g F m b F v ; w y s Z y w s H G b a T x n z I C A [ Q | ] D e V C x 2 h x l C D n h > s ~ E G s ^ ^ Z S G G G h R } ",
"! N ! ! ! M g M ~ J ~ Z 7 y q q s , q B J G Z s j u f 3 c I I D K W D c r A A x r C K c z c l j * y J J Z a J G R H E Q ] c D T ",
"! P P F ~ N i N G J ~ V ; 5 : ; 5 . , Z G J H k T D C 2 u C C C K R K C f K A j t C C j f j j u ; p E E S a H G R E ^ R K f R } ",
"o.` ! U ~ P v _ J ^ { G ; , q a y # 7 S H Q E a [ Q W r 9 4 9 j x K W D j C C j e l j p l n l f : p E J G k Q J G E R F C r D ] ",
"! _ X._ X.! n _ ^ ~ { G , y s B S 5 r G E ^ ^ a I R ] x j u f c h z V l n T W k 4 c A n Z A V x > y G G Z s ^ Q T Z C V K j l u ",
"M U / / _ ~ Z _ ~ S S b , p y q S 7 7 v S E E v T ( { k K [ [ [ R C l u D | O.C 2 C [ R A b x n , p S S V k ^ ~ W T D S R z C x ",
"Y L / / / ~ ~ O.~ S G B 5 a y w s ; * 8 a v b k D T R u C R [ Q @.Q A h T | | c 4 D | ( I C l k : y Z Z b s J H W Q R C V j W [ ",
"L n Y W I U I U F S J b ; 7 q y s , * , 8 8 8 q j z E D R c j K W D I j C D W p 9 A Q Q ^ W n p % 8 b b k w B b Q T A n C j A C ",
"2   1 4 < < & 5 4 4 4 4 : ; * ; ; ; + * # O , : 5 2 & < 5 4 < < 4 2 = O $ = 3 3 y Z { | E Z B z : * * # 7 : : 6 4 e 5 < 2 & 4 & ",
"c < 4 4 5 t 2 e t t u r w 7 5 7 : 3 w k s 8 8 % l n j 5 e 5 < < e p p 5 5 y e 2 > i Z Z k x b y * : 8 7 y 2 8 r t u p f c r c j ",
"K 9 j c c S j S b b n x s y p s v k y p r q z a k R T j x R R C h F H b B Q H h > k H Z z S J m 7 s E F Z y k z A Z A D K j K Q ",
"d 1 j K B B j S Z C n n b v v k b b v b s p v r u I D u f A D c r z x p k E ~ Z : s J J v Z H S 8 b | E m y k p T R T D K f K K ",
"t 4 c C c z y c n x k z v v s i v B Z H m z s 5 u D D j f x c x s k s p s Z E J : 3 p v s v b b 8 k { E b r z p V T Q A C h C c ",
"c 4 j c c C a c x k k v m B v p S G b v p p v w 3 j l f j j x n p s p r q r p s , O # 2 7 r y y , w J G z i Z v l T ( G K j C u ",
"a < 9 u y j y c h h z b b b v s B Z B b s s y ; + 9 t 5 5 9 4 2 : 8 w > * : , : , : : ; * ; 7 7 # * v v y 3 z k C T Q D D p x j ",
"a 2 j j y q q z q u k z v s p p Z S V b s s s ; 5 C I b C T K c y S J v s S E S r b E b 7 7 s k : , B B y > h j T Z C x c e b C ",
"k 7 s y y 7 7 p s s s s b s p s v b m Z m G G : 4 c K d Q L R K y Z E b A U ~ E v Z Z G v G Z m - 7 k v i y v v B Z B v s s v b ",
"s , v y w 7 7 b s b b b v s s k v m m Z Z U G 1 d j c 9 n K R 9 4 v Z i m  .^ Z k ^  .E p U E Z 3 8 s k y p k b y s b B b v z s ",
"v 7 m z z s i m y v b b b s s b b m m Z Z U U 3 9 0 j 4 < 0 j < 4 g v t k ) U Z s ~ ) F i M G m 3 7 y p p s V G v S ^ ' ' J J E ",
"w , m S S v y s s s z b B k z Z m m v m m J J 6 @ < < < + & < 4 - - 1 - @ 3 @ 0 3 6 1 6 ; 0 8 1 $ O % , ; 7 w y w y s s s p p a ",
"; # B Z m y 7 y B Z b B S m s v v v s v v F G 6 4 K t 1 j M u j g p s y : 6   3 3 1 ; 1 ; 0 6 - 3 ; ; , : % ; : : ; # ; ; * # ; ",
"; ; J S s 7 7 B B v s b S Z z s b v v v b Z G 9 0 &.o.j _ &.Q Q ......J m  .9 9 p F F b r G F p b p s z p y p i i w 0 y p y r y ",
"r 7 J Z v y y G z s y k S S b v m b v V v n C 4 < _ o.c Q } X.| ~ ) ) Z v  .8 6 k ~ ^ J g ~ E b b p s B v s b B p r y s p y i v ",
"k , s k m v y s m b k b H S b v v v k v i d l < r c W n @.( @.@.G F ~ F i ~ 9 m v F G ~ M E J Z v p s v p p k B y w r y 8 7 i V ",
"B : p i r p w G H V v V ' ' S v v v v b s i i # 0 K A j _ ( Q _ U F ~ b i } 0 p g F F m k ) ^ M Z v w V v i J y w y s b B b v b ",
"z w 7 , , 8 8 3 r r 8 r k s p s p i r w : , 0 : u ( Q d I R K R I U { F p ..i p m G G J v ~ E Z b s r b s y F y 8 r a v v s b Z ",
"b , O 8 y , w 8 y w 8 w w , , 7 , 7 7 0 ; @ 7 . j | ( u I Q Q Q U ~ +.G i { r i m Z G U b F F G Z v s B s p S s p s z v k s s B ",
"B , : B J v s Z G B s b Z i 7 w m Z G E F m m 7 l _ W t W X.X.| W E  .G i ) 0 v v m Z U b G G F B B k b s y B v v s s v B b z k ",
"w , v V B G v B b b s b b y 7 i G m v F F J F 7 c ( Q d R Y R ) } E ) G g { p G 9 p s g r Z M p s s s b s y k s v p y s S J b s ",
"w ; Z S Z S s S S G Z b y , ; r G m m ~ ) ) ^ i f [ } n T n A [ *.)  .~ v  .i m m G F M v ~ U b w s B G G b v z B s r s S S v y ",
"p ; a Z B v s G S J G v 0 ; ; 7 0 r s M F F M 3 r _ X.n Q I I ( { ~ { G z +.0 0 9 0 0 0 ; 0 0 6 8 r s b b s y p p w 7 w r w 7 , ",
"O * # # O # , O # : ; ; ; # O # O # ; 7 ; , 8 O e ( [ l ( _ R A k v I k p *.i 1 - - ; : O @ ; 1 * * ; # # # O * # # # # O   O # ",
"V S m m p k 7 k k q > a a a y k B s p z r B s : p ^ Q k [ } Q R ~ g 0 7 m ^ d d i } Q k r G b e 7 y s y 8 8 r u p 8 e $ x Q S S ",
".... .) m m h ~ R p q E ] E z z B S V B s m b 7 v Q D k } R c I ) U N g v { i v z D B y 3 S E b s Z G n u q e r 9 e l 5 R #.^ ^ ",
") )  . .E Z b { %.z : z V z q k H | { H S B J 8 h R Z l %.O.Q #.Y ) ) F v  .0 b Z F T V $ u R E h Z E I b a k x 5 e h : B ..| ..",
"J S G J F b z ^ ' k 6 S H V a b B ^ J Z Z s V 7 x @.Q t } | R ( E _ ..F v ) 0 v M G ' E 4 5 h V e h Z Z v x B F b x V = k ' Q Q ",
"} ~ J Z m g v { Q a > y a a q 5 5 7 5 5 p > e > & n h & C K A R v M M 8 i m 6 6 2 e 8 i 5 3 $ > = : 3 6 5 3 5 9 5 e i % z ' Q Q ",
"~ ~  .~ G k k ~ ' a o * * 5 * O , , , 5 p 5 < 5 u x f 2 j r 9 u 6 r 3 @ t k i 0 ; i 6 8 5 8 = e : : : 2 > = & : 2 = 3 . p Q Q { ",
"m F ) F J v s k j q 2 z B B y y y r k p z v : r f f j t A C c j 9 v 1 0 v Z U F l G F V e b D T k z b S V f y y Z h i + y Z S { ",
"~ F S r m v p r h y y B y 5 5 B 8 e b s s G = e p l c t C T A 4 0 ~ - g i g m b m z k p : B Q b x C R ' H z r 9 e 4 y * a S G @.",
"..^ ~ U E A h b ' y a H H z z H w s E s ' s 8 k D n T j T R ( t 9 N 1 0 m G ~ G G ~ ^ F B Z Z Z k z ^ Q G a h r r 8 z i a Q ] ..",
".._ { ~ E G B E [ z V R H S z B y a G k J v e k j f D j c C [ l 1 v 6 g M U ~ ~ ^ } G G a G Z G S B E H D u h p u y C p y G Q | ",
"m p r 8 r i 8 k z 4 q q 5 3 * = O . # # , : # % 3 : 4 & X & 5 @ @ < - 0 k ~ U G G U y H q R B H G z G G D p k h a u V 8 $ 5 8 y ",
"p 7 : - 6 r 2 8 k 2 3 5 3 2 * > y , : y y B k y C n 9 4 j A A C L d 0 d v ~ M v E E z { k E Z F b v E E R B Z x t u Z e : r e p ",
"F v g p l b i k H q a S S z a S S y : v k E Z u W [ e < R [ D [ ` F v v v ^ ~ J ..) ^ ..B Z b z z D | ^ Q H Q Z k a G f r Z b x ",
"v m G b k f e l B 5 y H R S z S ' B 7 B Z E D e Q #.j & W R l W m ~ v v v ~  ...) G { ^ Z B Q S V G | T G S Q D x j S u e C k p ",
"i d m d p f r z j > q z B B z z J b 8 b G J D y V Q j % I I Z N v  .M m F ~ } ) E Z } ' G R *.{ H Z E G Z k S D k p V q 8 Z B z ",
"6 8 i 0 k V j z z 3 5 q a B z a k y 3 k H G T j T D b : D D Z 6 1 G 0 g ~ ....~ ~ E ..' Z H } S Q B G T T k V G Z x Z 5 : h u e "
};
