/* XPM */
static char *fe367e06687d4ba6868c6f06a63f3a75zNDzFcvE8oCredMT[] = {
/* columns rows colors chars-per-pixel */
"64 64 250 2 ",
"   c #2B1917",
".  c #391818",
"X  c #300E0D",
"o  c #37271C",
"O  c #292418",
"+  c #391A23",
"@  c #271E21",
"#  c #3B2424",
"$  c #382927",
"%  c #39352B",
"&  c #3B3634",
"*  c #302929",
"=  c #1C0F16",
"-  c #431B1B",
";  c #461918",
":  c #551B1A",
">  c #46120F",
",  c #49261C",
"<  c #56271C",
"1  c #4D311F",
"2  c #67281D",
"3  c #471D24",
"4  c #561B24",
"5  c #452424",
"6  c #4A2424",
"7  c #452B24",
"8  c #4C2B24",
"9  c #4B242A",
"0  c #442C2C",
"q  c #4C2C2B",
"w  c #43252B",
"e  c #542323",
"r  c #542C2B",
"t  c #5B2D2D",
"y  c #592726",
"u  c #4B322C",
"i  c #46352A",
"p  c #53342C",
"a  c #5B342C",
"s  c #573829",
"d  c #492D33",
"f  c #542C31",
"g  c #5B2E33",
"h  c #592B37",
"j  c #453433",
"k  c #4C3334",
"l  c #4B3B33",
"z  c #473938",
"x  c #543433",
"c  c #5C3434",
"v  c #543B34",
"b  c #5C3B33",
"n  c #5A343B",
"m  c #533B3C",
"M  c #5B3C3B",
"N  c #55333A",
"B  c #652927",
"V  c #64342C",
"C  c #68382B",
"Z  c #78352B",
"A  c #642D34",
"S  c #643432",
"D  c #643C34",
"F  c #6B3C34",
"G  c #643C3C",
"H  c #6C3C3C",
"J  c #683437",
"K  c #763937",
"L  c #75282E",
"P  c #3E4A3C",
"I  c #4B4338",
"U  c #53433C",
"Y  c #5A4439",
"T  c #454128",
"R  c #63433D",
"E  c #6B423D",
"W  c #664434",
"Q  c #74423C",
"!  c #784538",
"~  c #6C432E",
"^  c #5B3D42",
"/  c #543A41",
"(  c #4D3C40",
")  c #633C42",
"_  c #673B43",
"`  c #783D42",
"'  c #4A4643",
"]  c #534442",
"[  c #5C4443",
"{  c #5D4A43",
"}  c #594949",
"|  c #5A534B",
" . c #5A5956",
".. c #525150",
"X. c #624344",
"o. c #6B4443",
"O. c #644A45",
"+. c #6C4B43",
"@. c #634C4A",
"#. c #6B4C4B",
"$. c #69434B",
"%. c #734444",
"&. c #734C44",
"*. c #7B4B44",
"=. c #734C4B",
"-. c #7C4C4B",
";. c #7A4446",
":. c #675549",
">. c #77544B",
",. c #674D52",
"<. c #754B53",
"1. c #6B5554",
"2. c #655B53",
"3. c #6C5A54",
"4. c #685858",
"5. c #735454",
"6. c #745A54",
"7. c #745B5B",
"8. c #7A5857",
"9. c #5D655B",
"0. c #69655C",
"q. c #76635A",
"w. c #756954",
"e. c #6B5D63",
"r. c #765962",
"t. c #5B6865",
"y. c #6A6A66",
"u. c #746B63",
"i. c #7C6B64",
"p. c #796767",
"a. c #69756B",
"s. c #72736D",
"d. c #7C736C",
"f. c #787868",
"g. c #796C72",
"h. c #7C7572",
"j. c #7C7B75",
"k. c #767876",
"l. c #6A7774",
"z. c #833A3A",
"x. c #85463B",
"c. c #91483B",
"v. c #8E513E",
"b. c #844B45",
"n. c #864A47",
"m. c #87544A",
"M. c #965449",
"N. c #874E53",
"B. c #855857",
"V. c #955B57",
"C. c #964D44",
"Z. c #87645B",
"A. c #97645B",
"S. c #885C62",
"D. c #866967",
"F. c #956966",
"G. c #8C746D",
"H. c #857469",
"J. c #96756B",
"K. c #886A73",
"L. c #8A7473",
"P. c #8A7C73",
"I. c #847B7B",
"U. c #8C7C7B",
"Y. c #847675",
"T. c #937B74",
"R. c #9B7C75",
"E. c #937C7B",
"W. c #987677",
"Q. c #966E73",
"!. c #A57B75",
"~. c #A7726C",
"^. c #A75750",
"/. c #7D827B",
"(. c #798276",
"). c #718176",
"_. c #8B847B",
"`. c #868579",
"'. c #9B837C",
"]. c #968579",
"[. c #8E816D",
"{. c #A6847A",
"}. c #B1877D",
"|. c #7C7D80",
" X c #967B81",
".X c #887C82",
"XX c #AF7E82",
"oX c #7E8786",
"OX c #79978F",
"+X c #8C8583",
"@X c #8B8B84",
"#X c #888A87",
"$X c #9A8483",
"%X c #938A83",
"&X c #9B8B84",
"*X c #938B89",
"=X c #988788",
"-X c #8A9388",
";X c #93938C",
":X c #9B938B",
">X c #979487",
",X c #8C9895",
"<X c #9C9393",
"1X c #9B9B94",
"2X c #979797",
"3X c #908B91",
"4X c #A68A87",
"5X c #B48A86",
"6X c #A6958A",
"7X c #B59389",
"8X c #A68E94",
"9X c #A49B94",
"0X c #A39C9A",
"qX c #AA9896",
"wX c #B99896",
"eX c #B58E90",
"rX c #9CA39A",
"tX c #96A293",
"yX c #ACA39D",
"uX c #A4A49B",
"iX c #B7A59B",
"pX c #B2B099",
"aX c #9C9DA0",
"sX c #B99CA2",
"dX c #A59DA2",
"fX c #98A4A5",
"gX c #97B0B4",
"hX c #ACA3A2",
"jX c #A8A9A6",
"kX c #B6A8A6",
"lX c #AAB2A8",
"zX c #B8B3A9",
"xX c #B9B8B5",
"cX c #ADB1B5",
"vX c #C7958E",
"bX c #C2A89B",
"nX c #D1A69A",
"mX c #C8ABA5",
"MX c #C4B5AC",
"NX c #C7B9B6",
"BX c #D3B3B0",
"VX c #E1B8B4",
"CX c #BEC3BC",
"ZX c #C7C5BC",
"AX c #D0C3BB",
"SX c #BEBBC6",
"DX c #C8C8C6",
"FX c #D2CECD",
"GX c #E7D9DA",
"HX c #B8C7C2",
/* pixels */
"xXjXk.#XCXxXxXlX>XlXzXjXjXjXdXaXgXgXgXcXSXcXFXgXcXSXcXxXNXFXxXcXjXdXaX2X|.oXa.s.k. X<XdXkXxXxXDXFXNXAX6X9X;X`.y.9.).l.a.(.k.#X,X",
"=XkXkX9X6X_.&X].pXpX].R.=X$XU.g.fXGX2X.Xg.|.l.k.SXxXqX X X=X2XFXxX=X|.l.9.s.3XjXg..X.XE.U.=XhXFX4XH.H.i.d.I.0X1X;X`.3X;XuXuX+XlX",
"_ S.eXF.>.%.>.! 5X5Xn.F.F.B.;.) @.zX7.9 9 9 / ^ NXF._ A J %.+.kX8.d / / e.e.kXDX,.r._ ^ [ } r.sXh 9 ; 3 w D. X0 { j ] / g.sX^ ,.",
"N.<.!.A.m.b.*.! ~.}.x.A.V.N.-.o.G kX<.r ` _ _ h BXF.;.` n.K F nXQ./ / / / d 8X8X^ _ / / ) / 4.8XB._ 4 9 3 ^ W.w ] j d + ,.sXN + ",
"R M J.B.D ! x.m.~.vXb.Z.B.B.Z.B.D.mXH J A -.o.&.BXV.n.N.N.x.V wXQ.n N N / d 8XsX^ $.) ^ ,.^ 1.qXr._ f 9 3 d E.w d & + & r.sX.XK.",
"l { '.6.Y &.B.Z.!.}.>.>.8.q.i.q.3._.M x 9 x M X.mXB.G H o.+.p D.<.+ # $ z z  X=X} ,.,.^ ( j } U.) h d . 0 [  X% $ ( $ $ 4.8X.Xe.",
"'  .j.| U O.:.E Z.H.5.q.u.2...' l.,XfX,X1Xj.y. .xX0X;X%Xd.j./.1Xy.z j I I  .k.3X`.#X/.s.y.t.t.s.p.:.[ { ] z _._.& * % & e.2X|.} ",
"rX1XzXyXqX6XbXbXBXBXMXNXMX1X@X,XgXFXFXFXFXFXcXSXxXcXcXxXhXxXcXrX0X&X%X%XP.9X:X9XpXlXyXuXkXlX;X`.qXqX].$X8XyXzXkXhXg.Y.I.*XhX3X8X",
"DXT.E.F.Q.}.vX}.vXnX5XJ.W.T.qXkXNX8X X X X X.XK.r.r.1.@.8XMX4. XeXV.N.-.B.` Q.Q.%.D.B.wXE.8.#.5.>.>.F.5.+.D.G.G.p.eXG.7.6.i.D.4X",
"GXD.-.;.! K Z n.z.n.V.A.-.E eXvXD.5.<.r.<._ ` <.N.<.<.G K.eX<.;.N.K K J K K K S Q y y 5XB.S ;.%.Q &.B.D r E E b p 8.>.; 5 q q q ",
"vX^.m.V.M.M.c.c.v.c.c.M.V.m.nXF.H G #.=._ ) =.;._ ` =.x Q.4X=.B.B.*.*.B : S V H a G q 7XF.X.) %.%.E m.m.Q D V E b B.Q.. 6 x M c ",
"~.V.A.C.C.M.v.M.c.M.M.x.n.m.vXb.-.>.>.=.^ ) %.;.A $.R q R.W.o.Z.-.E a ; e S e - X M q 6XG.M n ) +.F %.>.c , 8 E R +.D.. r b x x ",
"V.m.&.C m.! ~ m.! m.~ > F ! 7XZ.o.o.Y m k b o._ ;.o.X.U H.H.O.R s X.X.r 6 X 5 9 # + $ qXe.0 ^ ,.Y O.O.v 7 i { { l 0 } $ $ # = = ",
"W.D.8.:.].T.H.Z.w.:.Y U '.P.D.I q j l I { p.D.S.7.$.2.0.l.-X$X[ { I j x Q.r. XK.<X%X+XxX+X .} / ] U U U U U ] % j & 2.} $ * * I ",
"SXcXjXxXhXNXxXuX>X@X#Xj.dXaX2X3Xg..XoX-X,XlXxXsX3X;X2XfXfXCXNX1XrXuX1XqXNXkXhX2X2XfXfXfXjXaX2X2X0X:X:XkXyX_._.Y.d.h.+XI.y.a.@X*X",
"K.r. XFXh.d.s.t.I 0.3X*X<X<X=X+X<X1X1X#Xj.+XE.d.I.lXoX).t.t.y._.rXrX:XY.L.=X=X0XDX2XjXaX|..XaXcX[.].'.&X&X].9XuX&XY.p.p.j.;X<X2.",
"A B N.wXR O.U i X T ].'.Z.A.F.-.w.{.bX>.A.m.C C >.pX% O T O Y I (.].o.H J *.=.H.ZXp.,._ d $ j.0XW ~ ! v.V s {.w.s ! F , T pX[.1 ",
"K K Q }.W Y I O o 7 '.>.C B z.! W {.nXb.v.C.x.! &.7XO o 1 1 r p [.].y K z.Q R { kX Xh 4 e N y.kX! v.z.Z z.B [.Z.~ 2 2 F :.}.A.< ",
"A g _ eX3.U U   @   qX) c t J ;.Y }.VXn.` K K y S 4Xu x 1 R ` H J.'.` n.` K G d sXE.h h h w e.AXS Z L Z n.A Q.B.C L L L ) S.S.> ",
"f d m 8X .* * = @ & hX} k h f 3 l [.NX5.) 4 3 X 7.iX,.U o v n x P.w.h A _ _ N & kX5.w 3 + = e.kXc : A H h 3 W.7.; B 2 > + ,. X_ ",
"} .. .,Xa. .t.t.t.a.cXs.y.g.Y.p.9.).lX/.s.y.y.a._.rX(.@X>Xf.U I &X2.i 7 7 % o I .X& @ * % ..2X2X| & & & * & 3Xk.z k k m ' t.fX<X",
"zXzXzXZXlXcXlXjXjXfXjXjXkXmXNXNXxXxXZXjX2XtX-X@X1XyXzXAXFXMX9X}.iX6XH.0.w.w.0.%X<X+Xd.%X@XuX0X<X;X@X).a.k.+XjXhXhX&XT.%X`.-X2X2X",
"vXiXbXnXbXmXkXBXbX!.R.!.!.!.!.5X5X!.R.T.G.bXqX{.R.!.~.^.M.~.A.~.A.A.W W ].[.J.Z.>.Z.:.H.H.Z.H.{.].].`.>XH.D.D.q.X.&.Q m.8.[.Y.G.",
"V.x.V.m.x.m.m.}.~.n.b.K ! z.K z.z.Z Z C ~ 7X!.! ^.M.M.^.c.C.2 x.M.m.< [.bXW s F ~ F W s s 1 F y s s | [.x t o.J V ! Z ! V E 8 R ",
"x.v.v.x.M.! m.vXM.x.! K x.M.n.c.z.z.z.z.C }.J.v.m.x.v.c.v.c.v.x.M.Z y >.pXW ~ ! ! m.~ W s E ! F ! T T ].b S m.D C ! Z x.C W &.D ",
"~ v.x.! b.m.m.vXb.b.n.K b.C.x.z.z.z.n.K D '.Z.! ~ x.c.z.Z C ! C Z ! a q.bX>.>.! %.K E &.E W V Q W Y Y ].F.o.D &.F ! C K W W b p ",
"m.! V C F -.=.5X+._ J t S J e B y J f q { 6XH.7 Y b C s s p Y D H n.3 H.yX{ w.Z.;.N.B.o.+.+.-.H s o l P.#.M #.8.&.F y < 7 o , # ",
"B.D b 6.#.R k i.D.7.1.D. X4X8.$.8.,.p.qXyX_.2.' O.O.O.+.3.:.{ { r G # g.%X] ^ H _ J h x l i d x i i 3.L.^ w z $ 5 8 e r U j 0 0 ",
"&X'.:XkXuX@X/.lXDXlXjXxXxXDX0X+X.X#X3X3X;X2X*X*X:XyXqXqXkXqX%X_.g.Y.k.-XtX-Xy.q.,.5.,.7.w.u.y.f.H.7X6X4XE.D.Y.d.r.S.D.G.(./.Y.p.",
"{.6X'.yXZXzXxXxXlXlXHXxXY.s.y.d.-X#XrX;XuX@XI.=XqX Xp.U.Y.7.1.$XyXd.s.9.t.f.y._.4X4X{.U.>XtXpXuX>.>.H o.5.#.:XY.R.~.F.Z.y.-X=XQ.",
"B K e V.nXG.D.| ' 4.qXMX[ q f X.u.1XZX7.v q 5 9 !.=.. y y X ; S.5Xu l l i i 8 F.~.F Q ! J.Y w.[.! 2 B z.K D 6XY e y 2 1 $ Y.r.A ",
"K z.B ~.BXH +.X.1.[ D.4Xx G _ o.j 4.qX#._ c ; e XXS.4 4 4 B 4 J {.p Y s p 8 a J.V.: b.C ~.< ! Z.Z z.2 2 C ; H.r C B : <   T.B.4 ",
"K K S F.eX$.$.$._ / @.$Xm [ ) $.j ] sXX.) G 7 Y 4XS.; 4 4 4 y 6 4X$.x , 8 s X Z.G 3 n.N.vX4 8.J.! 2 2 2 X , !.W < B : ; , {.! > ",
"B e . 5.Y.k ) $./ # I Y.z $ . k = ..8X$.n q o O D.,.3 4 3 . X $ +X( o . . 7 O Y.:.u 9 4 ` ; w.{.C 2 < s 1 >.{.Y , p - 8 , {.W O ",
"8.i.w.d._.0.w.| z g.tXj.&  .4.| a.`.&X3.U z :.9.j.u.i o +   O  .h.P & & T T % ).-Xh.} k $ o T :.Y s 1 o O 9.%X4.0 0 i   $  .:.o ",
"NXBXMXMXMXMXMX'.:XyXzX1X@XpXpX1X>X-XqXbXiXqX9X6X>X>XP.L.L.d.a.-X-Xs./.`.`.(.a.]._.1X*Xd.2. .f.9X].J.f.:.' j.<X3XU.Y.I.h.`.`.;X`.",
"VXwXR.5X5X{.!.{.7X!.}.{.5X4X'.wX7XF.V.D.B.m.6.H.G.[.].{.R.4X:Xd.L.Y.U.P._.[.G.].4X8X8X=XkX4XT.{.!.~.R.G.L.E.Q.S.S.S.8.kXE.U.D.K.",
"8XR.-.B.V.m.m.! ~ b.A.x.b.-.E !.Z.K n.z.L K Q 8.B.E &.E c 7.%Xj N ^ @.{ :.3.=.#.$.N N / wXT.E e L B E =.#.o.J J A J h qXp.^ f J ",
"p.E.#.N.V.m.m.! ! ! x.K N.b.t W.!.m.V.n.K F Q >.m.8.>.O.M 5.=X+ d / X.} ,.O.=.G _ $.[ $ =X6.c H B < V W v s ! b.` H b '.D.7 g S ",
"h.8X<.B.V.! >.~ ! ! C.z.` ;.r E.XX-.*.N.*.D =.B.>.8.+.O.M 4.qXd n ) Y U { x o.g _ ^ j   8XH.c V V 2 < T Y C ! V Z H 1 ].w.s D F ",
"#X<X} 8.N.%.C V < a Z B A H m 4X8.o.B.>.+.D 8.&.=.x $.X.m }  X+ + 9 k Y Y 8 E c _ ^ j * &Xq.b K C < s s W ~ V Z K S s w.w.7 , c ",
"3X2X,.,._ c 8 s s 1 y %.%.n ] 9X$X:.I s Y Y 5.@.5.@.@.z $ } Y.4.N 4.l ] I H.Z.c n 0 *   f.w., , 1 , i i Y M , , , , 7 I I i i 7 ",
"cXHXrX:Xd.d.0.H.6X4XL.E.].I./.jXxX>X(.(.-X@X9X:X9XH.0.s.j.;X*X+X@XjX@X>Xw.].[.H.I | y.9._.`.Y Y :.0.4.q.G.H.X.4.| 0.s.#X,X3X-Xs.",
"cXCXxXxXyXMX&X].H.E.q.X.&XkX@X`._.-X-XlXuX`.].].].].zXlX3X<X=X9X%X@X>X%X'.].].].].uX`.f.].].].'._.rXI.H.$X$Xd.:XkXj.s.k.k.y.oX,X",
"q.7.5.q.D.5X8.y ; . 3 X 4XeX[ @.X.8.3.:Xw.i r y e o.iXT.k M <.8.i 3.bXN.Q F B.8.].6XY q c F m.W _.9X5.4 B A h r.:Xj + w w + e.jX",
"n.-.%.&.H Q.;.: 4 4 h ; eXwXg ;.N.-.r J.>.. : : B > F.F.c f H G X.6.!.J Z K K ; Z.7Xp A B y K < P.9X%.4 : 4 ; <.E.0 r h h +  ..X",
"` n.&.E 4 N.n.4 A A t - Q.bX=.N.N.%.; '.>.; < 2 B > ! G.s , y H U O.!.J B Z F V 8.7XD D B B z.V u.[.p : B : . :.H.o , e r 5  .I.",
"K %.M M w B.<.. r 3 X + ,.4Xo.G S c . wX6.X ; 3 < y O.Z.# v c E v U {.y S ` E p q.4Xx J H H V - [.(.. ; < < , w.[.o 7 5 9 . ..a.",
"U { U z % u.K.] ,.& z ] j.U.,.$ % & L.&Xg.z & ( + X ,.e.z % u u o z hX] ( ' & * ] j.,.m m X.d 7.2Xy.P ' *     } j.2.I z w @ & t.",
"6X&Xd.u.4.*XhX3X;XI.3X*X0X0X+Xs.-X`.+X&X#X#XoX|.g.r.=XI.s._.H.O.@.p.I..X|.3XoXg.#XkX9XY. X8X8XdXcXhX,XoXs.I.K.d.I..XY.p.r.e.|.,X",
"NXNXzXMXhXkXhXhXzX2XhXhXzXhXyX9X-X>X8XMXkX1X3X*XkX4X8X=X:XpXqX5XT.4X.XU..X3X1X<X*XhX9X&X_.yX9X+X+X&XjXrXq.H.J.{.i.D.Z.Z.Z.G.+X`.",
"4XK.5.5.$.,.1.$X=X7.,.7.p.1.3.O.U { M #.4.u.uXDX X8.$.,.3.O.D >.-.&.5.@.K.hXg.4.D.p.O.q.u 1.{ @.R s :.w.p s C C s 1 1 a F D U l ",
"V y f o._ N d K.W.M N M =.X.o.D M &.D , x v U.H.f f r b +.&.! x.B B S G <.sXN X.[ R O.J.E @.v p V y >.Z.~ ! K < C B C C K C C W ",
"H h g g 9 3 - 8.W.f n G =.=.o.o.>.>.&.t M v '.8.n X.H D o.*.K B K K J J 8.F.f =.o.b W b p s O.R D < &.Z.D ~ F C C F C B V F D q ",
"=.G G c - 3 . 5.4XG =.O.O.&.a p W R o.+.O.x ].1.x a p b D D ~ F J B S r 4XD.m M E W +.8 R Y X.m =., u 1.Y O.Y E R M x r n G u # ",
"q q M v 7 X.@.$XE.# O.Y O.6.v b b O.M Y v | 9X} $ U { Y u r D t r D X.5 q.7.$ U i I , o v U $ $ $ $ [ 4.z U U ] l 0 j m z $ % & ",
"{ q.:.U | q.+XzX:X2.{ I I :.:.:.u.i.u.0.I  .uX%Xy.%X_.u.q.w.q.Y :.2.| 2.k. . .{ I i % I i I z ( z ] 2.y.y.y.l.2.y. .4. . . .t.k.",
"qXiXzXzXNX:X9XyXzX9XuX:X:XzX9X>X9X*XhX-X:X:X2X1X1XlX1X9XyX&XY.f.]._.+X2XjX-X1X2XI.].[.d.1.y.+Xg.u.u.d.4.k.;X#Xy.y.I.k.+X3XoXk.|.",
"7X{.T.6X].@.{ { U 1.E.&Xq.1.Y H.W.&XjX4.u.p.1.K.kX0X4.1.5.8.7.8XhXY.Y.g.|...I.=X[ } k x d w  XS.5.) o.n P.qXU * d N 0 [ L.Y.[ d ",
"W Y q !.T.Y M m Y 0 $.L.[ Y 7 v d  XhXz ^ N ) N 8X4Xm X.) X.m 8X$Xm m j (   5.U.f p 6 x 9 N  Xr.H : y : J.7X7 5 9 4 3 g W.4Xc 5 ",
"-.E V J.R.t _ _ ^ 3 ,.S.. g J f 3 D.=X# 3 _ N.A  X4X_ <.=.$.q W.Q.3 f f d X r. X5 c a y 3 <.K.3 y : K : -.R.+ 8 4 4 ) h B.W.; 4 ",
"a , E D.wXm o.k d   _ D.9 ^ h +   | yX@.^ <.` g !.W.n G G 5.v :XK.9 d w 3   ,.Q., , 5 - + D.r.m ; < : > E E.j   9 . h @ } i.. . ",
">.T v s i.i k & $ & .XqX4.( j j * 9.tX .z x c n 3.3.% k T U % `.u.o # O @ * 4.=X:.T Y I ' k./.@X3.m 3 3 4.,X|.t.( & * @ ..k.' & ",
"[.f.2.f.>X_.0.u.y.h.hXdX+Xk. .& 9.rXtXa.s.1.q.O.H.(.q.f.u.0.P -X0.0 j & j I 0.+XtX].>X(.(./.,X-X@Xu.1.i.oXOXOX|.l.|.t.t.oX,X#Xg."
};
