/* XPM */
static char *_2035c758091405ecb1e6f8baeb76fc0udEPAaqVJ2oM051U[] = {
/* columns rows colors chars-per-pixel */
"64 64 206 2 ",
"   c #050404",
".  c #090605",
"X  c #060905",
"o  c #0A0A06",
"O  c #060609",
"+  c #090708",
"@  c #060909",
"#  c #0B0B0B",
"$  c #1A0705",
"%  c #140A04",
"&  c #110E0C",
"*  c #1E0C09",
"=  c #1B0A07",
"-  c #0E100E",
";  c #191007",
":  c #12110E",
">  c #171006",
",  c #0D0E11",
"<  c #110F10",
"1  c #0F1111",
"2  c #131313",
"3  c #1A1613",
"4  c #161817",
"5  c #1B1916",
"6  c #161719",
"7  c #191718",
"8  c #171918",
"9  c #1B1B1B",
"0  c #210F0D",
"q  c #25120D",
"w  c #221A14",
"e  c #2D1B15",
"r  c #221E1B",
"t  c #291C1C",
"y  c #261513",
"u  c #351E17",
"i  c #1E201F",
"p  c #24221E",
"a  c #2B231D",
"s  c #3A221B",
"d  c #34281F",
"f  c #34231C",
"g  c #1E1F22",
"h  c #241F20",
"j  c #1E2120",
"k  c #242423",
"l  c #2A2522",
"z  c #2C2925",
"x  c #262A29",
"c  c #2B2C2C",
"v  c #25262A",
"b  c #332521",
"n  c #3C2621",
"m  c #332B25",
"M  c #3B2B24",
"N  c #342E2A",
"B  c #3C2D2C",
"V  c #2D302F",
"C  c #33322D",
"Z  c #3B332D",
"A  c #2E3231",
"S  c #333434",
"D  c #3B3632",
"F  c #353837",
"G  c #3D3A35",
"H  c #363A39",
"J  c #383C3B",
"K  c #3A3E3D",
"L  c #3B3E3D",
"P  c #3E3E3E",
"I  c #3B3C3B",
"U  c #432D27",
"Y  c #452D29",
"T  c #45342E",
"R  c #4A322C",
"E  c #443634",
"W  c #4D3734",
"Q  c #433B35",
"!  c #4B3C35",
"~  c #443D3A",
"^  c #4B3D3B",
"/  c #573E3A",
"(  c #593D3A",
")  c #3C403F",
"_  c #3E403F",
"`  c #3E403F",
"'  c #4A4137",
"]  c #45423D",
"[  c #4C433D",
"{  c #53443E",
"}  c #58463F",
"|  c #3E4241",
" . c #3E4140",
".. c #434343",
"X. c #414241",
"o. c #414443",
"O. c #424645",
"+. c #454645",
"@. c #444444",
"#. c #4C4541",
"$. c #444847",
"%. c #464847",
"&. c #4E4A43",
"*. c #464A49",
"=. c #464A49",
"-. c #494A4A",
";. c #494C4B",
":. c #4B4E4D",
">. c #4D4E4D",
",. c #4B4C4B",
"<. c #534641",
"1. c #5A4744",
"2. c #534B44",
"3. c #5B4B44",
"4. c #544D4A",
"5. c #5B4C49",
"6. c #4E504F",
"7. c #4D504F",
"8. c #55524B",
"9. c #5D534C",
"0. c #5E5047",
"q. c #4E5150",
"w. c #4E5251",
"e. c #525252",
"r. c #555656",
"t. c #535554",
"y. c #555857",
"u. c #5D5B54",
"i. c #565A59",
"p. c #585A59",
"a. c #5B5D5C",
"s. c #5C5753",
"d. c #62534C",
"f. c #6B534D",
"g. c #645B4F",
"h. c #6C584D",
"j. c #655347",
"k. c #70534D",
"l. c #635552",
"z. c #6A5652",
"x. c #655A53",
"c. c #6B5C53",
"v. c #655C59",
"b. c #6C5E5A",
"n. c #735C53",
"m. c #765D59",
"M. c #654C47",
"N. c #5C605F",
"B. c #6E6257",
"V. c #65625B",
"C. c #6D635B",
"Z. c #6F695F",
"A. c #74645B",
"S. c #79665D",
"D. c #746A5D",
"F. c #79695D",
"G. c #726157",
"H. c #5E6261",
"J. c #626463",
"K. c #6B6562",
"L. c #646867",
"P. c #6D6961",
"I. c #666A69",
"U. c #6A6C6C",
"Y. c #726561",
"T. c #7A6661",
"R. c #746B64",
"E. c #7C6C64",
"W. c #7C6E6A",
"Q. c #706D68",
"!. c #6C706F",
"~. c #7D7164",
"^. c #77746D",
"/. c #7D736B",
"(. c #6F7271",
"). c #737373",
"_. c #7D7872",
"`. c #816E65",
"'. c #836E69",
"]. c #837166",
"[. c #84746B",
"{. c #88766C",
"}. c #867A6E",
"|. c #8A7A6E",
" X c #837672",
".X c #897771",
"XX c #857C73",
"oX c #8B7D73",
"OX c #8B7D7A",
"+X c #927E74",
"@X c #927F78",
"#X c #8D8175",
"$X c #85827B",
"%X c #8D857B",
"&X c #928376",
"*X c #93857A",
"=X c #95897D",
"-X c #998B7D",
";X c #8B8881",
":X c #948C83",
">X c #9A8E82",
",X c #948F89",
"<X c #9A9084",
"1X c #97938C",
"2X c #9A938A",
"3X c #979086",
/* pixels */
"c c A A A F K K H | ..~ O.,.P k o o o @ @ X @ - - 8 8 4 O O , O O O 1 1 1 1 # 1 @ - - - @ @ 8 V $.O.o.] ..@...F F S A A A A c c ",
"V A A F F H K P +.| ..+.:...x < @ o # o X X @ @ @ 1 - 1 , O g O @ , # 1 4 1 1 #     @ @ o @ - 2 S ] -.O...@...I I H F A A A V c ",
"A A F F J K | | -.....>.,.c <   o o - o o @ @ @ - 1 @ # , g g , , # # 1 4 8 4 # - @ @ @ - @ @ @ 7 S >.>.@.@.%...P P H F F A V V ",
"A F H J K | O.$...*.e.e.H 2 + # o X @ @ o @ - - 1 1 @ , , g v , @ , , 4 8 8 4 1 4 1 # @ @ # # # + k ..e.6.-.*.-...| K I H F A A ",
"F F ) ) | | $.$.+.e.e...k # + 2 o @ o @ o - 2 2 8 9 2 1 4 j x 2 @ - 2 8 8 4 1 - - # # @ @ X X #   2 c >.p.e.>.-.| :.| | J H A A ",
"H H | | | | =.:.q.6.@.c 2 < # # o o - o - - 2 4 i k 8 2 6 x S 6 - 2 8 9 4 1 # @ X o - # # @ # X # O 2 F e.p.6.>.w.| | | | H H H ",
"H H | | | | w.w.e.+.S 9 2 < # + # # # o o # : 2 9 k 8 2 9 A I g 4 : : 2 : - # #   o - o # - # o # O # 9 ~ p.p.>.w.:.:.| | | H H ",
"| | | | =.:.w.w.>.K k 6 # , # # o o + X X @ # - i k 4 2 9 F P r 4 - + # - : - # o + +   X # - # # #     x t.a.6.w.w.| | | | | H ",
"| | *.*.$.q.y.7.-.c 9 2 # # , # #     & : # : 4 i i 4 : i C C i 9 - - 3 5 5 2 X X X   X o - o o # # < # 2 H a.p.w.y.w.| =.=.| | ",
"| | *.*.;.t.p.7.| k 2 2 # + # # & # + # # : 5 k 4 i : : i C ) z 9 : - 2 : 4 i 3 i 4 : o o X X o # # # # & x -.a.y.y.w.=.:.| K | ",
"*.| ;.7.w.i.y.$.S 8 # # #     #   # : 7 9 5 5 5 : 5 : : 5 C ) Z 5 : & : & : 5 5 p 5 : : & o o o # # O # < 2 A p.a.i.w.:.w.| | | ",
"*.=.7.t.y.i.e.` c 2 @ # #   # 2 + 2 2 p k p 2 # - > - > : p m ) 5 : o : & - 3 : : : 3 5 3 : o o + # # # 2 # j :.H.a.w.w.t.=.| | ",
"*.;.w.y.w.i.y.$.k 1 O 2 # + # < 9 7 2 5 4 i : o X o o o & 5 z C p : o - & & : o - & 3 i 3 : & o O # # # 1 1 9 S i.H.y.y.y.:.| =.",
"w.w.t.t.w.y.i.;.9 # # # # # # # 2 & & 2 > & o & : i p z z C ` [ G p 3 : - : : - & & & : 4 : : : O # # # 1 4 8 9 w.H.H.H.i.w.| :.",
"w.w.y.y.y.y.7.J 2 # # #   # , # X   - 5 4 o 2 p ) ` 8.u.u.N.P.^.P.8.o.H C z z p 4 o o o : : : : #     # - 1 8 6 | H.H.H.i.i.t.w.",
"w.w.i.H.a.y.` j # @ # +   # # O # # 2 5 4 & p &.V.Z.^.XX$X$X;X2X1X$X_.Q.u.&.[ G d i > : > - o X <     2 # - 8 6 | H.H.i.H.i.w.:.",
";.N.H.y.H.H.| i # X # # O +   # # 1 9 # : 5 #.Z.^./.XX%X%X;X,X3X;X1X,X%XoX/.A.l.<.N 3 * 2 , , , # # # O # 2 2 # k y.!.a.a.a.$.t.",
"i.i.H.H.!.H.H 1 # @ @   X + # X @ 1 4 - 3 m s.~.[.XX%X*X=X:X,X2X2X2X3X%X*XoX/.A.d.E w : 2 < < 2 # 2 , # # , 1 - j F H.I.H.H.y.y.",
"H.i.H.!.H.;.j @ # @ # + # # # # @ 6 1 1 5 ] V.XX}.#X%X=X=X:X:X3X2X2X:X=X%X#X[./.G.{ a 3 & < 2 2 9 2 2 2 # # # 4 j 8 w.(.H.H.H.:.",
"y.i.H.H.y.A 4 - @ # X O #   # O , 8 1 2 9 8.R.}.$X#X*X=X=X;X=X:X3X3X:X*XoXXX.X[.A.3.B w : # # # 9 2 7 2 4 # # 2 9 8 w.(.H.H.H.w.",
"N.I.H.N.| x 8 1 # @ # # # # # # : 5 : 3 z v.~._.XX#X%X*X=X-X-X-X3X<X<X=XoX}.[..XR.l.E a 3 & o # 6 2 7 9 2 # 1 4 8 V i.I.H.H.H.H.",
"N.H.H.y.| V 4 @ @ X   # # # # # 2 i 4 p Z Z././.oX#X&X=X-X-X-X-X-X<X3X-XoX].].].E.x.^ N r 3 & # 2 2 2 6 2 < 1 4 x :.H.H.I.I.i.H.",
"N.H.H.w.) j -   @ # # + # # # & 2 3 5 a #.P.$X}.oX#X#X=X-X<X-X-X-X-X-X-X&X[.E.E.E.b.1.Z a 5 : & < 2 2 2 2 2 1 # J w.!.I.I.H.i.i.",
"H.H.H.w.V 1 @ @ # @ O + # # # # : : i l 8.P.XX/.#X#X%X=X-X-X-X-X<X=X-X-X-XoXE.R.E.b.3.D l w 3 : # 2 2 2 2 2 1   F | H.!.H.H.H.H.",
"H.!.H.N.x 1 X @ @ - @ @ # # 2 # 2 : ; m 4.Q././.XXXX#X#X-X-X-X-X-X=X&X-X&X#XD.B.C.b.9.E l r 3 : # , 2 , 1 4 - @ j | N.!.I.I.i.N.",
"H.!.H.w.i @ X @ @ - - o # , 2 # : : : p G x.^.XX$XXX#X#X#X#X&X-X-X=X&X#X#X#XD.u.b.v.4.D w & : 3 & 2 & # # 2 1 # @ k H w.N.I.H.N.",
"H.I.I.y.i @ @ @ @ - # # # 2 , 2 o & - : 5 C ] u.P.}.$X}.}.#X#X&X#X#X#X/.XX#X~.x.2.^ Z t < . % 2 & 2 2 # # # 1 4 1 4 1 x H H.H.H.",
"N.N.H.=.8 @ @ @ # # # # # # < < & o & & o o 2 9 G 4.V.D.~.[.}.~.D.~.~.Z.Z.C.9.] l 3 & & 3 & & & # , 1 # # # 1 4 8 8 @ 8 c N.H.H.",
"=.:.w.A 1 @ - - # @ @ # # # # 2 - - - o - o X     : a M ' 9.B.Z.D.D.B.' Z m 3 . & .   . < 2 7 2 2 # 2 # # @ # 1 - @ - j A H.H.H.",
"y.y.;.j @ @ - - - @ # # # # # 2 : 4 - X @ - -           ; d } g.g.} Z w %       + + + . + & 7 9 # 2 # < - @ # # @ @ - 8 j N.!.H.",
"H.!.w.j i - - @ - @ X # # # , 2 i p i - @ 4 8 1 2 - .   % q ' B.g.' a > % & : w 7 6 < + # 9 k 9 6 2 , 2 - @ @ - 1 - @ 4 8 w.!.H.",
"H.!.t.j V i - @ - @ # # 2 # : 2 i F F i 2 k V k p 5 3 w w a } ~.^.} a w y r t l h h 7 < h G S p 9 2 & # - - - 1 @ - , 4 4 w.(.H.",
"H.!.4.H A H 2 + + # # # 2 2 2 # m X.,.X.D m a a a d M M M T f.XX#XB.{ T M d d b t y y B <.4.^ h < 6 g # # , , # # # g 1 2 q.U.I.",
"U.a.-.6.I k #       # # < 2 2 < D 4.v.v.l.5.3.3.3.3.0.0.<.2.A.oX&XD.j.} 3.} 1.3.1.W ^ 1.l.l.( t 6 7 h < 2 2 2 2 2 < k 7 2 e.).I.",
"U.v.>.+.v 7 # #   O   # , 2 5 2 D s.K.Y./.[.E.'.A.G.A.G.h.g.Y.oX&X~.c.n.m.S.S.S.T.z.z.b.b.l.^ h 7 g g 2 2 2 2 , 2 # k 9 7 t.).K.",
"v.!.p.c 2 5 9 #   O + + # 2 2 2 B 4.K.R..X X[.[.S.S.S.A.c.x.A.XX#X~.B.A.E.'.'.'.'.b.z.b.b.5.E h z h 7 , # 2 < # # 2 9 7 V v.!.I.",
"p.I.,.h v v 2   # #     # 2 2 # V ,.v.Y.[.XX[.[.~.`.`.S.n.h.E.oX&X].A.F.'.[.[.{.'.z.d.x.d.{ B a D h < # # < 2 2 < 9 7 2 %.).U.U.",
"L.%.v h H 9 + : # #   # # & # # l ^ 9.b.~.[.[.[.{.].`.S.h.f.F.oX-X].F.F.].[.{..X].c.d.d.5.~ m a V g < # , 2 9 9 2 h 6 7 >.).J.U.",
"H.c h V N 2 9 g # # #   # # # + 3 Z <.5.G.~.].].{.].`.`.h.j.S.|.-X[.F.`.].{.{.|.].c.0.9.#.M r 5 7 < # # < # 9 k 9 6 2 9 ..U.U.J.",
"..V >.*.v 9 H 9 # # + # # # #   + l Q 2.h.n.`.].].].].`.n.f.`.&X-X#X].{.|.+X|.|.E.j.<.3.~ a > %   . # < # O < k k , g h S J.).v.",
"-.......< h c 2 2 O + , # # # + . l Z ] 0.c.G.{.{.{.+X`.M.M.`.`.|.[.F.D.{.&X&X|.F.g.} [ E p % . +     # # # < 6 k v 2 9 P U.U.H.",
"e.-.,.+.g c ..h 9 # # # # # # #   t D Q [ d.A.].+X[.+X`.R q d { } d f g.-X>X&X{.].c.3.{ G r o +       # # # , 2 v c 2 6 N J.I.J.",
"p.p.r.,.h S ,.V k & + # # # # +   w D G Q 3.A.A..X'.*X*X} e q s d $ ; } #X=XoX[.~.B.9.{ F w O O +     # # # # 2 r c 7 2 h e.H.v.",
"J.v.a.>.h S e.S v 2 @ +   +       & C ~ G #.b.A.'.{.@X@XF.3.U q q a { E.=X=XoX~.D.V.9.] N 2 + O X     O # + # 2 2 h 2 , 6 >.a.r.",
"a.J.J.p.V S a.F v 3 + # # @ @   @ @ k ` ~ ] 9.c.T.[..X.X.X.XT.d.3.Y.OXOXOXOX}.~.B.g.2.' l - O , O     # +   # # # 6 < , < -.J.p.",
"a.v.J.J...F K...x 2 # #     @   @   5 G ] Q [ 9.b.E..X X'.W.'..XOX X'. X X'.E.F.g.9.[ C 9 - O @ #     O #   # 2 < < + # # ..J.a.",
"a.a.J.U.,.S K.,.k # # # #     @ @ O # x I Q Q <.x.x.l.1.^ Z B E Z B E 5.Y.Y.c.g.9.[ ` p -   O @ O     # O # # 2 2 < < 9 < X.p.r.",
"a.p.N.U.,.v J.+.9 # # # @   @ @ @   O 2 D G D [ 5.W t $ * y 0 0 * $ $ 0 y n ! 3.} ' d 4 X   O O +     # # # # 2 6 7 h S h +.p.e.",
"r.J.p.J.H.S @.S < + + + + + + + O O O @ 9 C Q E 5.5.<.T M Y W ( ( ( R U W 3.0.[ [ z t <   # O + #     # + # # 2 9 H ..k c -.t.t.",
"e.a.p.J.J.I H h 2 # + + # + + + O @ O   # k F Q <.1.5./ ( } M.k.`.n.k.f.z.c.9.2.Z r 9 &   + O , # O   # # # # , c I V 7 k +.t.t.",
"e.p.p.J.N.-.v < 2 , + + # + + + O O O   . 7 N E Q ^ ^ T M s s s u u R 1.h.d.3.#.l 9 9 < + + . < #   O # # O # < h x g 9 S >.r.4.",
">.r.p.a.r.>.9 7 7 < # # # + + + O @ @ O O & r h Q ^ / E d f f f s s U } d.d.' Z p 5 3 # & +   < # # + # # # # # 2 9 h c -.a.e.-.",
">.e.t.t.>.-.6 x 9 < & , + + + + O # O O   + o o l D 2.0.0.2.9.g.'.T.m.b.V.x.' p > : X   + + + & # # # # # O + # h c N I -.e.>.-.",
",.e.t.e.,.I g I g 2 + # + +   + # @ O     # : :   5 Z 9.V.Z.~.$X|.{.[.R.B.2.p   : 5     < + + # # # + # # # # # h H P ..>.e.-.-.",
"-.e.e.-.q.c h *.7 < # + .     . # O     # & 3 5 . & w Z 2.s.V.Z.Z.Z.P.v.[ a o   5 z # X < + .   # O # # # # + # g S -.>.e.e.-.+.",
"+.,.,.-.t.v h -.g 2 # + .       O O   #   # # : 3 o X 3 N ] &.8.9.8.[ G p o : z : l & o <     + #   # # # # # # h I -.-.,.4.-.+.",
"+.;.+.*.%.c k @.h < . O .     . O       O O + X - X X X o 4 p a p : : o X o 4 X     o # o .   +   # # # # # + # h I 6.4.%.%.%...",
"..-.+.-.-.S k I k <                     O O o o X X X o o o o o o X o o X o : o   + & & o # +     # # < # , < 2 , h I @.%.%...H ",
"` $...O.%.S k x x 2                     + # X + o X o X o X X X X X X o > o > 4 2 r 7 & # & &     O # # 6 9 9 6 O , g S ..+.~ S ",
"P o.| P +.P c k 9 <                       + + # 2 i 4 - o X o - o X X 4 i 3 : p l h w # o o +       # 2 2 9 9 9 O O   7 c F I I ",
"F ` ` o.*.+.S c #                         @ o # : i i 4 : X     X X X 3 a p p C 7 3 & & +     X     # # 2 7 9 2 2       2 h c F ",
"F P ` ` K S k #                           X o - - : 4 : : # - : : o & 9 p p a C 3 & & 3 :           O # # 2 2 2 2       + # 2 h ",
"H A V z i 4 #                               # : 3 : & & : 5 5 4 4 : 9 l w 3 p a t 9 w 9 2 X         # # # , # 2 , #         + + ",
"A k 9 2     # #                     +       # - 5 : : 4 p 5 :   : & p l % o w 5 t k r : X   X #   + # # # # # 2 #         O O O "
};
