/* XPM */
static char *_a5e9e714fcd462a993d05377e40bc906joMMHIluIjUn5lb[] = {
/* columns rows colors chars-per-pixel */
"64 59 256 2 ",
"   c #08080A",
".  c #120A0C",
"X  c #0C0C11",
"o  c #140D13",
"O  c #0D1616",
"+  c #141315",
"@  c #19181B",
"#  c #13140D",
"$  c #27171A",
"%  c #052B1B",
"&  c #07341E",
"*  c #1D1D21",
"=  c #261D23",
"-  c #381F22",
";  c #033C24",
":  c #0C3C2A",
">  c #083625",
",  c #15372B",
"<  c #0C3D31",
"1  c #143C34",
"2  c #1B3B35",
"3  c #1A3734",
"4  c #112924",
"5  c #272427",
"6  c #342E2E",
"7  c #4C3432",
"8  c #572723",
"9  c #0A432D",
"0  c #034A2D",
"q  c #064629",
"w  c #02562D",
"e  c #0D4432",
"r  c #034B33",
"t  c #0B4C32",
"y  c #094A36",
"u  c #144334",
"i  c #1A443B",
"p  c #15493A",
"a  c #045334",
"s  c #04563A",
"d  c #0C553B",
"f  c #045B3A",
"g  c #0B5B3D",
"h  c #085634",
"j  c #125C3D",
"k  c #12543A",
"l  c #11432C",
"z  c #06633C",
"x  c #046F35",
"c  c #174433",
"v  c #583B41",
"b  c #1B4B43",
"n  c #0D5D43",
"m  c #095A43",
"M  c #135A44",
"N  c #1B5C4B",
"B  c #165746",
"V  c #1A5E51",
"C  c #254A43",
"Z  c #21594B",
"A  c #245B52",
"S  c #355846",
"D  c #0C6344",
"F  c #0B6B46",
"G  c #0C6B4B",
"H  c #066746",
"J  c #14644C",
"K  c #1B624D",
"L  c #146B4C",
"P  c #146546",
"I  c #0C734D",
"U  c #05774A",
"Y  c #1D6551",
"T  c #146D53",
"R  c #1B6A56",
"E  c #0B7954",
"W  c #137C5B",
"Q  c #177657",
"!  c #12724F",
"~  c #246759",
"^  c #286B56",
"/  c #1D7862",
"(  c #276D64",
")  c #297966",
"_  c #34796A",
"`  c #386863",
"'  c #544E4E",
"]  c #78585A",
"[  c #6A4F4F",
"{  c #755D64",
"}  c #51766D",
"|  c #756A70",
" . c #676469",
".. c #875556",
"X. c #915C63",
"o. c #896768",
"O. c #966B6A",
"+. c #9B7776",
"@. c #8D7174",
"#. c #A87A78",
"$. c #AC7371",
"%. c #89635F",
"&. c #C2737F",
"*. c #098759",
"=. c #15855B",
"-. c #089156",
";. c #0B8D63",
":. c #178865",
">. c #099666",
",. c #169569",
"<. c #189A72",
"1. c #25896A",
"2. c #27936C",
"3. c #259876",
"4. c #338D74",
"5. c #07A669",
"6. c #0CA874",
"7. c #16A877",
"8. c #18B57B",
"9. c #12AC70",
"0. c #25A678",
"q. c #29B27D",
"w. c #14A45F",
"e. c #58907D",
"r. c #15C877",
"t. c #BA847C",
"y. c #AD847E",
"u. c #89807B",
"i. c #C3867D",
"p. c #797988",
"a. c #8E7B85",
"s. c #AF7B84",
"d. c #CF778C",
"f. c #2C9882",
"g. c #19B785",
"h. c #12B382",
"j. c #2AA686",
"k. c #25B887",
"l. c #30B58E",
"z. c #5FA093",
"x. c #1AC589",
"c. c #17CA93",
"v. c #1BD399",
"b. c #10CE8C",
"n. c #26C68A",
"m. c #28C996",
"M. c #37C996",
"N. c #28D69A",
"B. c #39D79B",
"V. c #28CD89",
"C. c #2CE39B",
"Z. c #1CD7A1",
"A. c #27DBA4",
"S. c #36DBA4",
"D. c #35CCA2",
"F. c #2AE4AA",
"G. c #38E6A9",
"H. c #38EFB2",
"J. c #19E49D",
"K. c #46D9A4",
"L. c #56D0A7",
"P. c #47E8AB",
"I. c #47EAB3",
"U. c #57ECB7",
"Y. c #48F4B6",
"T. c #55F6B8",
"R. c #54EBAB",
"E. c #66F5BC",
"W. c #6EEFBD",
"Q. c #50D4A3",
"!. c #5EF9C2",
"~. c #4CF2C0",
"^. c #69FAC6",
"/. c #76FBC9",
"(. c #7CFFD2",
"). c #66EBC0",
"_. c #71D6C6",
"`. c #928C90",
"'. c #AA8687",
"]. c #B88988",
"[. c #BB9597",
"{. c #B19194",
"}. c #AF9AA8",
"|. c #98AEAA",
" X c #B4AEB7",
".X c #9793A5",
"XX c #C58B86",
"oX c #D18C85",
"OX c #C8938A",
"+X c #C88B94",
"@X c #C99998",
"#X c #D59998",
"$X c #D49191",
"%X c #CCA39E",
"&X c #D8A39B",
"*X c #D89CA3",
"=X c #CE98A4",
"-X c #E59CA6",
";X c #CAA5A6",
":X c #D4A4A4",
">X c #DBA4A2",
",X c #DCABAB",
"<X c #D6AAA7",
"1X c #C8ABB5",
"2X c #D8ACB3",
"3X c #D8B4B6",
"4X c #D0B3B0",
"5X c #E3ACAC",
"6X c #E4A9A7",
"7X c #E7ACB2",
"8X c #E3B3B3",
"9X c #E7B9BB",
"0X c #EFB1B4",
"qX c #E49896",
"wX c #89DCB9",
"eX c #E5C0BE",
"rX c #B9B7CA",
"tX c #B6B7CF",
"yX c #C7B9CA",
"uX c #DABCC4",
"iX c #C3BDD7",
"pX c #E8BDC4",
"aX c #F8BCC5",
"sX c #B4C5CB",
"dX c #87FCCA",
"fX c #89FED5",
"gX c #93FDD3",
"hX c #AAE2D8",
"jX c #C8C5D8",
"kX c #D6C8D8",
"lX c #CBCCD5",
"zX c #E9C5C9",
"xX c #EECAD1",
"cX c #CBCBE3",
"vX c #D4CEE3",
"bX c #DBD3E4",
"nX c #D8D6EA",
"mX c #DBDBF2",
"MX c #DADAF6",
"NX c #CCD4E4",
"BX c #E2DBED",
"VX c #E6D9E8",
"CX c #E5DDF3",
"ZX c #F2D7F0",
"AX c #DBE7F3",
"SX c #ECE3F4",
"DX c #E5E4FB",
"FX c #EBE5FA",
"GX c #EDEBFC",
"HX c #E6E5F6",
"JX c #F2EBFC",
"KX c #F5E8F8",
"LX c #F3F2FE",
"PX c #FAF2FE",
"IX c #EBE4EF",
"UX c #DAE5DD",
/* pixels */
"H.U.V.F % > P >.-.J.E.C.x , & , 3 m T b 1 1 y T E b 3 b A A R D./.).3.V A Y ~ ~ 2.3.3.W ,.:.L K P Z Y P =.w.V.c.g.,.z j z j >.N.",
"n.Y.Y.7.l & , q h q.E.P.-.l l , < m Y M < 3 p T Q b b A A ~ T l././.D.<.( ( ~ R ) :.,.4.:.:.^ P L K Z Q k.G.T.^.E.K.5.z z P 5.F.",
"*.P.E.V.h > , 4 : 8.T.Y.9.l : , < b J T b 3 b Y / V b C C C A Y _.fX).D.j.( ` ` ^ / <.q.M.q.8.1.Q Y Y 0.Y.^.P.Q.(.^.N.=.j D -.>.",
"h B.^.G.I > , > & -.P.T.r.k u l i 1 J W B b b N b i O O X X @   e L.L.D.j.( ( ( ) 3.K.T.W.W.R.r.=.! W V./.E.8.w.R.fXE.7.D j H f ",
"l r.E.T.>.> , , ; ! G.E.N.F l t i 1 J / ~ V M u   X X o . o o o * X   , 3 C ( _ 1.K././.E.dXdXE.q.=.=.B.dXE.w.=.m.(./.V.U j j j ",
"l ,.T.E.9.l , , : j N.E.P.=.k u 1 u b V ~ Q B * o * o @ o * * @ $ o +     X 3 ( l.T.gXR.V.R.dXgXK.2.1.K.dXE.9.=.8.^.dXG.*.z z z ",
"l -.R.T.8.l : , , j V.E.T.N.<.L i 1 i b V V 4 X O * o O X @ = X @   X   O O o = 1.E.gXR.q.B.W.gXR.q.1.B.fX/.k.! 0.U.fXI.=.P H z ",
"l =.R.T.2.l 9 3 j ,.H.E.E.P.v.:.C 1 C b b 3 o +   . = *   o + O X O O o $ + O o   e.gXR.0.8.E.gXdXr.2.B.(.(.M.=.>.P.gXT.,.P D P ",
"-.2.U.I.:.1 3 1 K q.N.N.n.8.:.M b b b b C @ X $ @   . #   # # * @ + * O o * *   . 2 ).E.e.8.Y.dXdXB.2.l./.fXR.,.1.G.fX).7.F D D ",
"C.F.Y.n.n 2 2 1 d L Q =.:.:.J C 2 b b C 4 o X   @     O # * * # 6 + * * X = 5 5 *   O 4.M.4.K.gXgXP.2.0.).fXE.9.:.S.(.Y.,.F D L ",
"C.V.0.L u 1 1 2 2 i Q 6.g.g.g.:.B b b 4 X * +   + @ @ * 5 5 $ * $ = @ = $ 5 = @ $ 5 # : M.0.B.dXdXR.3.4.K.(.fXL.k.R.(.B.-.P D L ",
"^ Q P p i u 1 3 1 M k.g.<.h.A.v.:.b C X o * . # - 7 7 7 6 v [ %.{ { [ [ o.@.] - @ * 5 2 q.k.B.(.dXR.3._ j.I.(.(.T.^.U.q.E P L D ",
"B K L L N i 2 1 1 :.N.j.b V l.F.g.N 3 o $ # - ..#.y.y.O.y.y.$.t.].].[.].].].[.+.= # 6 @ 1.B.Q.dXdXQ.4.` 1.l.K.T.P.C.8.=.! P L z ",
"Q L K =.:.K C u i <.Z.h.b b <.F.A.W 3 o 6 # ..i.t.i.OXXXOXi.t.t.].XXt.t.OXOXOX+Xo.@ - 3 4.(./.dX).l._ 1._ ) 3.0.k.n.9.=.L P ! P ",
"=.k 2 Z :.W B i i 3.F.g.V 2 / D.S.<.k # 5 8 i.i.i.i.i.OXi.&XOX#X$XOX%X<X#X>X&X@X{.v # i W.dX(.U.M.4._ 1.4.( / ,.D.U.B.2.L L I F ",
"Q C , k *.:.N 1 u <.F.c.J 2 R c.G.8.p # # ] i.qX6X&X&X&X&X6X<X<X,X>X,X5X8X8X:X<X@X] * 4 M.B.M.l.2._ 4._ _ ) 2.B.^.fXT.<.E T I P ",
"=.i , p T :.! p b W A.A.W i b k.F.k.B   = $.oX6X8X5X0X6X6X6X<X8X&X<X,X,X7X7X,X<X*Xa.- C _ f.l.f.4.4._ ) _ 1.l.F.U.fX^.k.I L L L ",
"=.Z , 1 J 1.Q k 1 T A.A.<.b b 7.A.g.R O 7 s.OX%X6X8X8X4X<X<X,X,X*X@X:X&X<X5X5X8X2Xs.v C f.f.m.D.3._ ) ) ) ) j.m.M.^./.M.*.z F F ",
"=.P : , B :.=.j 1 M j.F.g.V b 7.F.j.R , 7 i.OX%X8X6X>X:X&X&X<X5X5X>X>X5X6X<X8X5X,X{.' ( f.l.D.Z.j.) ) ) ) ) 1.:.7.R.(.S.*.I I L ",
"=.F 9 , u Q =.k < 1 1.A.v./ J 7.m.:.B 3 7 t.OX&X<X,X0X0X6X5X5X8X0XxXxXzX3X,X,X8X7X+X' ( f.f.f.m.j.R ( ( ~ ~ R Y :.D./.G.=.P H D ",
"Q L e 4 , ! T e < , B 6.c.g.<.h.<.Y b 2 7 i.XX$X#X@X4X3XeXeX8XeXpX2X}.a.| a.s.;X>X@X{ ` ( ( ) j.j.R A R A R N Z L g.T.G.=.j d g ",
"P E D < r Q Q t 1 < < m ;.7.<.<.T i b b ' &.t.].O.] ] o.].,X8X8X2X;Xs.$.].{.[.}.@X;X@.` ( ( ) j.j.) A ( A ~ Y N P 7.T.I.7.j d M ",
"n E Q D H W L t 1 y 1 i M R W :.:.M N N ' XXt.y.[.%XOX$.$.i.6X6X,XXX..X.$.].;X<X%X;X@._ ( / ) j.l.4.~ ( ~ ~ Y Y K 3.Y.).n.I H a ",
"9 H T J H G e , < e 2 u r M <.N.k.W M M ' t.t.].t.#.[ [ %.$.&X6X5Xs.[ o.' @.+.#X<X%X+. .} ( ( f.c.3.R R A Y J V j =.P.^.G.<.=.D ",
"> : u d m m r < e e , e j 6.P./.Y.<.B ' ] $.i.i...+.[ @.+.O.oXi.<X].....O.+X].@X2XOX].0X{.( ( 1.g.0.T N Y N J V W 8.Y.^.T.A.6.G ",
"; % e I ;.<.<.W y 1 u r ;.N.Y./.U.g.j | i.$.i.i.i.OXs.$.$.$.oXqX6X6X#.X.+.].,X0X,X&X@X0X`.V R :.k.j.:.R Y M V M ;.c.G.G.V.9.*.g ",
"> > E h.h.h.v.c.*.e u t >.k.m.T.^.V.f { qX$.i.6X6X$X#.$.oXoXoXqX&X5X0X#X+X@X,X9XzX&X#XaX} T R 1.g.k.<./ R M B M E ,.,.>.-.U j t ",
"4 m h.v.W J h.F.x.H e u D P *.G.^.B.*.S OXi.&X9X>X-X&X5XOXi.$X6X&X6X&X&X*X:X8XxXzX4X1XaX` T ) ,.h.h.;.W J M B m j j F 9.x.:.k h ",
"> H D.c.m < W A.A.>.y < e e j V.^.P.,.t y.$X#XeX0X8X9X$Xt.OX6X7X7X5X-X+X7XpXaXxXzX<X;X7X` J / W R Q R J M k M d s T 7.F.H.g.f f ",
"& G A.Z.G > M c.F.8.y e e l k g.!.!.7.0 +.qX#XeXzXaX7X$.d.$X0XaXaX2X,Xs.s.8XxXZXzX%XxX:X~ M N R J J J J m M d n J >.c.A.~.N.H s ",
"; I Z.A.E ; y 6.H.g.m 1 0 q r w.U.!.g.g | &X#X<XaX9XXX].&XOX@X:X2X2X2X2X#.'.aXpX3X%XzX`.m A n V W G T T ! H d k M ;.6.h.H.F.U t ",
"; H A.F.>.< < ;.S.Z.E < 0 u u E P.!.A.H S &Xi.#X6X[.O.[.@XO.o.O.o.o.].;X{.O.[.pX9X{.} N N G m / T J n T T H m k h U n W G.G.-.h ",
"; r g.H.7.r : E J.Z.I ; 9 , q F G./.I.g.:.j  .&X#X%.[ d.$.O.X.#.s.s.[.{.O.X.'.2X9Xe.B N N N G Q J D n D ! I f k f t s E Z.~.6.a ",
"r > h.F.c.H ; I m.v.G < l : H 9.H.^.T.J.9.x S @X6X#.] v #.+Xd.d.7X+X-Xd.v $.@X8X0X} m Z n L ! I G n M D I I g k d k a D x.Y.g.f ",
"a ; E Z.F.>.r E Z.c.m ; 9 t I b.G.A.M.8.=.k i ].&X@X]...#X1XpXkXuXZX8Xs.].y.@X;X<X) M K n n T Q L n d n G ! D d h h f d 8.H.m.F ",
"r > r 6.A.v.>.h.c.,.y q q 9 f *.;.5.>.*.m u a @.].@X@X-X$XX.=X=X{.s.X.=X8X:X;X,X{.W B f M M m E L n d n H I D s f f w a >.H.F.*.",
"0 & 4 n 9.x.h.h.>.H e q 0 q q h W 6.6.x.6.E r S ].OX%X<X*X-Xd.d.d.-X7X0X8X3X,X#X|.:.A f j M m U ! D d g D ! D s s d a f ;.S.H.k.",
"; ; > : h U 5.6.6.>.U w q 0 q Q g.h.>.h.Z.h.m e o.XXOX<X:X:Xd.$X-X*X7X9X9X8X,X;X|.>.n M M y B J ! D d s H I D d m d n E h.H.H.Z.",
"4 ; ; ; w *.V.G.H.G.r.*.w q r 6.b.;.f =.A.v.*.0 | t.OX&X*X#X#.$.a.d.,X9XeX3X%X0X X6.H f g f d m I G m f H F g d s y m *.h.c.g.6.",
"; < % q -.C.T.R.T.W.U.r.H q D b.Z.*.q m h.A.l.|.4Xi.y.%X5X#XXXO.X.{.5X9X9X;X3XzX2X|.e.k 0 d m d H G J n D H f d d d s H E U H H ",
"> ; ; q 9.E.T.r.r.R.W.R.w.w H g.J.<.& t z.sXkX{.o.&Xy.O.4XeX,X].s.[.uXaX'.{.zXaX4X1XiXrXz.b r r w D D z j h a d t a a t f U H U ",
"> > 9 w V.^.T.5.U C.W.R.r.x M x.J.<.e.yXkX1X@.6 8 @X<Xy.O.8X%Xy.o.{.1Xa.o.eXzXeX X{.}.yXvXjX|.} B r w k z k t a t w t a I E F F ",
"9 & ; w V.E.T.w.x 9.E.W.r.U w 7._.NXSXlX`.[  .u.[ OX%X&XO.[ %.[ v { [ o.zXzXzXzX2X[ { .X}.iXkXbXtXe.r U *.z h r 0 0 0 f E E z w ",
"q ; ; w V.E.E.r.x -.P./.R.q.`.UXFXvXrX| | }.UXO.8 &X6X%X<Xy.[ [ '  .s.pXzXxXzXzX2X+.5 v jXrX.X}.yXnX|.;.5.>.h l r t 0 z *.U w 0 ",
"w ; & w r.E.W.r.x x P.hXUXGXLXjX`.}..Xa.kXKXxX[ 7 &X6X&X;X<X@X;X=XuXxXzXzXxXzXkX2X@X] `.CXvXtX.X| `.VXsX>.;.g q r t 0 z -.U w t ",
"x q & ; w.T./.C.2.|.AXSXvXtX| 7 | HXlXyXKXZXZX .8 OX6X8X<X2X@X:X2X2X3XpXzXzXzXzX3X].%.VXCXnXmXbXu.[ `.ZX_.>.z a t 0 q f *.E a q ",
"x ; & q -.G./.W.NXCXkXiX| p. X XLXSXBXkXNXIXKXa.$ i.,X3XeX<X<X4X;X2X3XxXuXzXxXpX<X]  XPXFXmXvXCXjX`.o. XAX<.F q 9 0 0 h E *.z 0 ",
"-.q ; & w V.E.UXCXNXjX| `.BXZXkXKXCXJXSXlX1XIXkX- $.<X3X4X4X3X<X1X3X3XuXxXuXpXpX'.@.KXPXJXBXnXMXnX X+.`.AXsXz.w q q q 0 U *.x 0 ",
"w.w & ; ; -.R.KXnXvX`. .bXKXGXkXlXKXIXSXKXbXkXSX] %.2X;X4X4X3X3X3XuXuXkXzXpXxX1X] xXLXGXLXJXBXnXMXkX`.+.IXHXDXjXz.2 > : z *.I 0 ",
"b.-.w & > q z.SXvXrXa.uXKXIXFXSXyXbXKXIXVXKXSXIX1X] [.9X2X3X1X2X2XuXuXxX3XxX3Xo. XLXLXGXGXGXHXmXmXVX{.`.SXDXFXmXBXsXe.< r U U H ",
"H.J.w.w : % } JXvXrXlXPXSXSXKXJXCXyXbXPXKXKXKXKXLXkX+.'.8X8X:X=X=X1X1X3XpX4Xy.}.KXPXGXLXPXGXHXmXmXVX XyXKXDXDXDXiXMXKXiX} n H U ",
"P.b.>.; & ; < jXbXiXbXIXKXSXJXIXPXbXjXBXJXIXGXSXHXGXKXuX X1X3X;X;X[.@X2X}.{.bXPXLXLXLXGXKXPXFXnXBXbXkXZXGXMXDXCXcXiXMXCXFXsX_ z ",
"-.H q q > % S rXGXVXbXCXCXFXKXKXSXPXCXVXSXJXLXJXKXGXJXJXBX1X4X<X=X=X[.'.1XIXJXGXLXLXLXIXJXPXGXHXIXbXBXPXFXvXDXDXnXiXNXGXnXCXGX} ",
"; ; % % > | bXVXvXCXSXSXCXFXSXIXKXFXJXSXSXSXSXJXSXJXGXDXLXFXkXyX}.1X'.yXLXLXGXGXLXGXLXLXPXJXJXGXSXGXFXGXCXcXMXFXNXrXvXGXDXCXJXcX",
"0 s r > z.KXnXnXVXSXbXVXCXBXFXKXJXSXJXJXFXFXFXGXPXCXFXHXDXJXJXLXBXa..XPXGXGXLXGXGXLXLXGXJXGXLXHXGXLXGXDXnXvXMXFXvXiXHXJXPXFXFXDX",
"q f s } VXZXCXVXSXCXKXSXCXvX XjXvXvXnXBXnXCXFXCXCXDXLXJXFXHXDXMXMXvXFXJXGXGXLXPXPXGXHXHXDXAXGXGXLXGXDXAXcXnXFXFXvXjXSXGXHXDXGXDX",
"& r n |.IXVXSXnXCXSXCXDXJXBXcXjXvXvXkXjXjXtXtXrXiXcX.XtXtXiXcXcXcXCXHXmXFXMXCXiXtXFXnXMXDXDXGXLXLXGXDXnXcXDXFXmXnXvXSXGXGXGXFXFX",
"; ; } lXIXHXZXHXCXCXCXCXJXSXmXNXJXKXGXFXDXCXCXDXMXZXz.p.MXcXMXcXjXiXtXjXsXcXcX .tXDXDXDXMXDXGXLXLXFXDXNXnXFXFXmXnXbXGXGXJXFXDXGX",
"% % .XIXVXAXKXSXSXSXCXBXFXFXCXMXCXFXFXFXDXCXDXFXCXFXcX .MXMXMXCXCXFXFXDXcXMXcXp.NXDXAXDXDXDXGXLXLXGXHXnXmXJXDXmXBXBXJXKXLXDXHXFX"
};
