/* XPM */
static char *_71ce439e36144cdfb8576a616c4aa37if9QSFbVFbiswa4M[] = {
/* columns rows colors chars-per-pixel */
"64 64 115 2 ",
"   c #282826",
".  c #373735",
"X  c #3F3F3D",
"o  c #464543",
"O  c #484846",
"+  c #4E4D4B",
"@  c #4F504B",
"#  c #51514F",
"$  c #555452",
"%  c #595655",
"&  c #5A5957",
"*  c #555658",
"=  c #5C5C5A",
"-  c #615E57",
";  c #615F5B",
":  c #5F605B",
">  c #63615E",
",  c #69665F",
"<  c #5E5F61",
"1  c #5F6362",
"2  c #656462",
"3  c #696663",
"4  c #676965",
"5  c #6C6A66",
"6  c #696768",
"7  c #6D6C6A",
"8  c #706D66",
"9  c #716E6B",
"0  c #6F716E",
"q  c #73716D",
"w  c #79766F",
"e  c #6A6E71",
"r  c #716F70",
"t  c #757473",
"y  c #797673",
"u  c #777975",
"i  c #7C7975",
"p  c #767779",
"a  c #7A7778",
"s  c #76797C",
"d  c #7D7C7A",
"f  c #817E77",
"g  c #817E7B",
"h  c #7F807D",
"j  c #838077",
"k  c #83817D",
"l  c #88857E",
"z  c #8B887F",
"x  c #7C7E81",
"c  c #827E81",
"v  c #7E8083",
"b  c #858482",
"n  c #898683",
"m  c #878885",
"M  c #8B8986",
"N  c #8A8789",
"B  c #878988",
"V  c #8D8C8A",
"C  c #908D86",
"Z  c #918E8A",
"A  c #8E908E",
"S  c #93918D",
"D  c #99958E",
"F  c #8F8D90",
"G  c #918F90",
"H  c #8F9190",
"J  c #959492",
"K  c #999692",
"L  c #969894",
"P  c #9B9995",
"I  c #979598",
"U  c #999799",
"Y  c #979B9A",
"T  c #9D9D9A",
"R  c #A19C96",
"E  c #A19E9A",
"W  c #9FA09D",
"Q  c #A3A29D",
"!  c #A8A59E",
"~  c #9FA2A1",
"^  c #A5A5A2",
"/  c #A9A7A3",
"(  c #A7A8A3",
")  c #ABAAA5",
"_  c #A9A7A8",
"`  c #ADADAA",
"'  c #B0ADA6",
"]  c #B1AEAB",
"[  c #AFB0AB",
"{  c #B3B1AD",
"}  c #B9B6AF",
"|  c #B5B5B2",
" . c #B9B7B3",
".. c #B7B8B3",
"X. c #BABAB6",
"o. c #BDBCBA",
"O. c #C0BEBC",
"+. c #BFC0BB",
"@. c #C2C1BE",
"#. c #C8C5BE",
"$. c #C4C4C2",
"%. c #C8C7C4",
"&. c #CAC9C6",
"*. c #C9C7C8",
"=. c #CDCCCB",
"-. c #D0CECB",
";. c #CFD0CB",
":. c #D2D1CE",
">. c #D4D4D2",
",. c #D9D7D4",
"<. c #DAD9D5",
"1. c #DCDCDA",
"2. c #E1E1DE",
"3. c #E4E3E1",
"4. c #EAEAE8",
/* pixels */
"T ~ I T _ ~ ~ x x I x v I x v N v v h 0 h J F m d t 5 4 < 2 > ; c G M C K n Z L K T K M l Z S z M q h 3 2 2 2 < # < * # *   X . ",
"J V p N Y v F v x v x x x e p F H Y Y L W ( ~ Y _ J V T ^ Q ^ Q E / ' / ] Z U / | X.X. . .X.X.{ { D { { | |  .| | o.o.| X.F ` ^ ",
"o.` V | o.o.o.$.=.*.*.*.>.$.| 1.$.;.>.>.<.<.:.>.3...| >.1.,.,.,.:.,.2.,.2.} %.,.=.-.:.>.:.:.:.=.:.Q #.:.*.$.$.$.X.| X.o.| V | _ ",
"X._ B @.o.$.o.$.*.o.*.*.>.o.Y *.$.$.*.=.;.;.:.>.2.` _ *.-.@.O.O.&.%.:.&.,.Q o.,.-.-.-.-.:.=.%.=.:.L ..&.O.X.$.O.O.| X.o.{ N ` ~ ",
"| _ F $.o.*.o.$.*.*.=.*.=.o.~ >.=.=.*.=.>.>.>.1.3.| [ &.=.*.=.&.-.%.:.&.<.Q @.<.:.=.=.:.=.&.$.$.-.T X.%.@.@.=.$.@.| o.@.| N _ T ",
"| _ v o.| $.o.o.*.*.=.*.*.| ~ >.$.=.=.=.>.>.;.:.1.` ` $.$.$.-.*.%.#.:.&.<.^ ..-.*.*.-.>.>.=.&.$.#.Q @.%.+.+.O.| o.{ | o.{ x ~ T ",
"| _ B o.o.o.| *.o.$.*.*.=.| Y *.@.=.=.=.>.>.;.:.2._ ( *.$.o.*.$.@.#.=.%.-.Q } &.*.=.-.=.=.-.&.*.+.Q X.#.*.@.@.O...| | X.| d ~ _ ",
"| ~ F $.*.o.| *.*.*.*.*.>.` ~ >.*.>.>.>.>.<.1.1.4._ _ ;.*.+.$.O.#.=.-.=.&.` X.,.>.>.>.=.*.=.=.*.%.) #.=.=.@.o.*.$.@.o.o.+.B _ { ",
"] T V | ` ` | ` | | _ o.$.Y ~ *.o.@.o.+...o...[ | A ` o.+...+.+.+.X.@.X.&.P ( ..@...X.{ { [ { { ] Z P R E E / P I ~ T U V d k b ",
"; = + 2 * & 2 $ O < * < e < < 1 7 e 6 $ * * * * 5 * p B A L W v w d k h M q d l k M m w k M V M K g n n C n C y V I G H J N M M ",
"Q ` ^ _ T _ { I I o.| | @.@.o.[ o.X.=.W | *.&.:.:.:.<.<.>.;.>.Y ` %.#.@.&.%.&.:.&.1.>.( ..#.@.{ &.X.#.o.O.X.X.Y o.$.X.X.o.| | | ",
"_ | { | ` | $.T Y o.o.| o.X.| | o.| :.H [ $.$.$.@.;.*.&.&.=.2.Y ) $.X.+.@.%.#.%.#.>.:.T ..#.@.X.%.#.%.O.O.o.o.V | o.| | X.[ _ _ ",
"` | ` | { ` X.I ~ o.o.o.*.o.o.*.+...>.v | =.@.@.=.>.$.*.$.$.>.B [ #. .#.@.#.X.%.#.=.:.K +.=.%.=.O.@.$.o.o.o.o.B ` X.] | | ` ] _ ",
"` ] ` { | ` | H I o.o.o.o.o.o.o.| | *.x [ >.=.;.$.*.@.*.;.&.1.L { %.X.%.$.@.@.&.&.#.:.J ..@.X.@.$.*.*.O.@.o.$.F _ | { { | _ ` ) ",
"_ ] ` ` | { o.F Y o.o.| o.o...o.X.X.$.v _ *.@.$.$.$.$.$.+.+.;.A ` @.X.@.@.O.O.%.#...;.S { %.%.#.@.$.$.@.@.o.@.N _ X.| ` { _ _ ^ ",
"^ ` _ ^ _ _ | v Y | ` ` o.[ | o.| +.+.v ~ $.+.@.*.$.$.+.+.+.;.H Q @.@...X...X.#.@.| :.Z ' $.%.X.o.$.@.$.@.o.o.b _ | ` ` [ ` _ T ",
"_ ` X.| X.| o.J ~ ..X...o.@.o.$.*.X.<.B | :.+.=.+.#.&.+.+.&.#.z } &.#.#.&.&.&.#.&.#.-.! ' <.#.#.*.*.:.=.O.*.X.S ` o.` { { { Q Q ",
"N b d d g d b 2 u m N d b s u d t 7 m : N J J Y ( W W W W W Q h j D z z D C C D D S D q , 8 > > 2 $ & < * % & o & 3 = 3 > & & > ",
"t > * 7 6 7 7 2 6 r t 0 t 2 < 0 r t p p M v V B W 0 h m A C A h j z h j z j l C C D R D S S D ! _ b M ^ P J P T V J J J J g M L ",
"_ J n { _ ` ` | [ [ | ..X.^ _ X...X.{ o.X.{ @...+.A ! [ +.[ +.+.+.+...+.+.! ) X. . .' } O.} X.' | J U X.| ^ _ | ` ) ` _ ] m P ( ",
"_ V a ` T E T ^ ^ W ( _ { A J ` _ _ ` [ _ | | | +.h ! [ [ ..[ ..+.X.X.X.+.L T ' ! / R / { ' X.' | J T | | ^ _ ] | _ _ ^ ` d G T ",
"` S d ` T Q E _ _ ~ _ _ | V I [ ~ ^ { _ _ ..` ` +.m ( +.+.+.+...+.+.+.+.%.L W ' } O.{ } } { X.! ] V Z ` _ ^ ` | | _ ` ^ ] b G T ",
"^ M a T T E ^ _ ^ T _ ^ [ V I [ ` [ { ^ [ [ ^ _ ..M ( ..+...+.+.+.+.@.+.$.S R ] / ' ' ' ' ' ' ' | M V ` ` _ { | ` _ _ ^ _ x N I ",
"^ V d T T T ^ T ^ W _ ^ ` B J ) _ [ ~ ~ | _ _ | ..m W ..+.[ +.+.+.+.#.X.@.S T ) ' / / ' { ' ( ! | N V ` | _ _ ` ` _ _ ^ Q c N I ",
"P k q / P T D Q T Q ( Q ` k K [ ` ^ ~ [ ( ! ` ) [ d ! ..+...[ #.#.{ +.+.@.M R { ' ( ' ' ' ' ! ' O.c g O. .] ' ] ` _ ) ^ [ i m L ",
"` L M ` W W ^ ) { { | ` ..L Q { [ [ { X..... .} ..M Q { +.+.+.+.#.#.@.+.@.R ' } } } +.[ +.+.} +.O.R Z O.] ' ] } { ` ^ T ^ h m L ",
"+ # ; d b k B h i l d d k q w d h l M m M C C l A 8 0 8 0 : , @ $ : : : 3 3 8 9 5 5 8 , - w 8 8 3 ; % 9 3 6 w 6 < 6 ; 2 4 & > 0 ",
"N B J V M b A t k D M S S S S J W W W M D Q ! Q Q L D W ! ( [ m L ( W W E / ^ E W L W h j R D D D Z Z K K R E N x U Z T J A M A ",
"P T ( W _ ( | I S [ Q ) ( { ] { [ { [ C W [ } [ { ..} [ [ ' } l ^ ..( | ) ) E ! [ [ [ M c ' ! ! ! ! E Q Q / / c d W L T I J b b ",
"I Y ~ ~ _ ~ ( v M ) Q ) Q ` ) { ( ' [ h W ( ) ( ! ! ' ! ( ! [ l L ( W { ] ) ^ ] ( ^ ) m c _ U K ! R R I K R R g e J H J A J V A ",
"L I H H H Y ~ B b Q W Q ^ ^ Q Q ( ! [ h P ! ! ! [ ' { ' ' ' ' z L ` ^ [ ` ` ) / ) ^ ] n n ' U R / R R I R K ^ m a T I I H H V F ",
"H J J ~ T Y T v m Q Q Q ` Q Q ( ( ! ( w P ! ! ( ' Q ' ' ' ( ! j L ( ^ Q ) ` ] Q ) E _ g g / I R R c K K P Z R b 7 J Y I I B V V ",
"D L L L W S W i m R R ) R ' R ) Q Q ! 8 D ` ! Q ! ! R ! { ! E f L ) Q ` ` { Q ( T Q ! k d ^ T T R S R D K K R g 8 L A L T M J B ",
"M A L L W P W u n E E R T ) P P ' ` ` u D ( Q Q ! ' ! ! ' ! ! f D ( Q ( ( { Q ( T T ! l d W T T P C K Z K D K k 9 L J L I M B b ",
"! W ^ W W ! ( v K _ ) / _ ] ` ( [ ' ' m Q ` ( [ } ' O.' } } } C ( { { .. ...) { ` ` ] Z l L S L R Z D D P K K l a P J I T A J M ",
"h 4 0 0 0 t h 2 , q t t i 8 t i w 0 h 4 w h h k l f n l n l Z y k A M M V k y k d d k q q i i l n y i l n k n a 6 y 6 9 t 5 7 t ",
"Y e b A H H T Y J L U L T i V U J H W S T P L W R n K ! E E / E Q ^ Q Q Q S M K L K P P R ^ E ! R N l L K P L D T U V J P b k I ",
"W 4 B W Y Y T ~ E T ^ ^ _ p T ( W W ( ! ^ W ^ Q ' g K / ^ R ' ' ( / ( ( ` S V T L K K K P U I J T g d I J J J J K Z N I I h i S ",
"Y 1 L ~ H Y H Y I S I Z ^ 7 J E W W W W T ^ ^ E Q f K / ! E ] ' ] ( ) ! ` V V W Z J D K R E Q E T d t J V Z M V n V N Z Z n g I ",
"H : H Y A Y H Y L I I V ~ 7 I T W W W W I U ~ I R w R E Q _ } ' ] / ( Q ( M l D L T P T U L E R ^ g u P S A M J N Z Z n n b d Z ",
"B 1 H Y L J Y H V J J J L 4 V Y A H L W L S L L ! w L ^ Q ( ` ` ) ) Q ) / M M R J K K P R D R G D g 9 G Z N c N G N Z N N s r G ",
"v 1 V J H H H H V J I S H 6 S W H H A W L L T T K 7 S Q Q ^ ) ( ) ) Q [ ) V V R D Z K P D D R Z K g 8 n Z N n c N c N b N d p G ",
"v 4 B A H H J H i N J J V 2 b A z l A A S L L L T q A Q Q Q ^ Q ^ ` W ) / M l D D S K R K K D S R g 9 C Z C M C N m n b V m a V ",
"v 4 h B B V H m N J E ^ T d A P W W ! W Q ^ ^ Q ( d S P Q P Q W W W P ! ! C C R R R R E R R R R R f 9 C D n N C g b b d g i r d ",
"0 > t p h d b 0 r y a a q 2 u k M M S i V A M M k : 7 7 q 0 q 4 , 0 8 w j h f z l w f f 8 f f f f 8 8 f g y f y 7 g d u i u t y ",
"V m S S T I L b n n V N m b V J C M C q V C V C W B D D W K K b z L D R Q R ! ' ! R ! S l D S R R C D R E Z R C b E T U E E E T ",
"V V S V D A A w f g N N Z N n V D C P 9 S P D D P D K L Q T W l C W D D R D R Q R P E M f D G D D S Z Z K Z I n t I G V I U U V ",
"V V S M S M M 7 g g N n n Z V J S C D , V D D P K K L C K T Q k l L D D R D D R K K ^ g f D G Z D S Z c G C I c a T G N I I I N ",
"S B V A S N A 0 d k b b b M V J V V M 5 S S S S S T L W L J Y d n K D D K G D R K D M n t S M A C M K n G N N b a I V B H F J b ",
"V M V V B b B 7 d h h l N B M M k k k , V A A S B S S L L J P p g Z Z C S Z D R K K C C t J M B n M D n Z Z n c e M b b V B N b ",
"b b M b M N V 7 d d d k B b b k M l n 7 V A S S S J J L D P L u g D Z Z D K R D Z D S M w S M B l V Z n Z c c c t A B B F G F F ",
"b k B b B M V 0 b d d d b k N b d i d 4 l C S L P P P J S L S q f C l n Z C G C Z D Z g 7 M M B k V V n c c c r t B B N N M m V ",
"B b A m N b B 0 S N V m J V J Z D V V k n Z Z G P S K D V S M i l D C Z S S D C n C C f 5 b N m k V g n c g g f a b m g b g y g ",
"5 : t 5 0 r 0 4 i t k d M t d i g y i 4 3 9 , , 5 : , 5 , 7 3 > 3 9 8 9 w 5 5 8 9 9 f 9 3 t q 5 8 9 ; q 9 9 f 8 7 a i 9 t 9 ; 6 ",
"d 2 h h B B M b d d S b V u b b n n Z Z Z D D D D d z S S D S S n S n D Z g g C n l Z Z M S N N n n 9 M Z n G G M M Z n n N 9 f ",
"p : p i h d d d k d V d N 6 d m n g M M c N C C S 7 i l l M j l l n g Z C f f n g f n c k N b x l f ; l c g c c k g n g c g 3 9 ",
"s $ b x p d s c d p h B m 3 i k g g Z c Z C c g S 3 y l n g C n n n g g n f f g g c C n N N b b g g 6 y C c c c m d c c d d 2 r ",
"t $ d d p x b B u p h h h 7 v h c C C C Z c C g n 3 f g C g n f C n g C n f y g z c c C n n b N g g , g N c c c b a n x a a < e ",
"e * x s e p p x u u h h i 7 k d g g g c g g g g z 3 f f z n C g g g g g g 9 9 g g z c c c c c b g f % r f f g c c s b a a a < 9 ",
"e < x s p x x b h h b d p 4 b k C C g g C g g g l ; y f C n C g g g f z g 9 f c g g D c n n b c g f % a g c c c b d c r r r 6 a ",
"6 < x p s x x x h h b k d 6 b S c g g c n g g g g ; f g C f f f f f f f g f 8 g g g g g g c g g g f # g c c g c N c c s a y r a ",
"e 7 b x M V V V A b B B h 7 b V K D D D K D R D R f g l D n M G g C C R D z g C g g D Z Z Z Z c c c % f f g c c a d d a a r 6 7 ",
"- ; 7 7 g g b i b b B b b t b k g c g f f c n g g 9 9 5 f f f f f f g z g f f 8 f f f f f g g g g f % 3 8 9 i y 2 r r r r 6 6 2 ",
"c g N f l g u 4 t u h d b b V d g C c f f c n g z n D n D R g 9 f f z f f f f f f g f g g c Z C z D c Z K Z D m p c c c c c c c "
};
