/* XPM */
static char *_59f1183d8e64ca8e7f0f0a4407d76e9l0gtS2Vn6ZXRJbBl[] = {
/* columns rows colors chars-per-pixel */
"64 64 256 2 ",
"   c #030301",
".  c #0B0302",
"X  c #020A04",
"o  c #030C0A",
"O  c #0B0C0B",
"+  c #0B0807",
"@  c #120403",
"#  c #140905",
"$  c #130C0A",
"%  c #1A0908",
"&  c #02140B",
"*  c #061609",
"=  c #17140C",
"-  c #0A0D12",
";  c #160D13",
":  c #071915",
">  c #1C1412",
",  c #161816",
"<  c #240B09",
"1  c #26120D",
"2  c #36150B",
"3  c #271717",
"4  c #341313",
"5  c #01260B",
"6  c #022414",
"7  c #022C1C",
"8  c #062719",
"9  c #16251A",
"0  c #02341B",
"q  c #01380D",
"w  c #2F241B",
"e  c #151C24",
"r  c #251C24",
"t  c #311D21",
"y  c #092B23",
"u  c #182828",
"i  c #073826",
"p  c #173829",
"a  c #183835",
"s  c #172F34",
"d  c #262728",
"f  c #372725",
"g  c #283736",
"h  c #2F2E31",
"j  c #471815",
"k  c #51271C",
"l  c #462728",
"z  c #51332F",
"x  c #693831",
"c  c #542223",
"v  c #034A1D",
"b  c #034629",
"n  c #03572B",
"m  c #084835",
"M  c #174739",
"N  c #015C35",
"B  c #055A39",
"V  c #15472D",
"C  c #2A443A",
"Z  c #02633C",
"A  c #026838",
"S  c #076F39",
"D  c #49443B",
"F  c #71443B",
"G  c #333A45",
"H  c #1C3F43",
"J  c #4C3743",
"K  c #165B44",
"L  c #115343",
"P  c #27564C",
"I  c #394B55",
"U  c #285B55",
"Y  c #34514D",
"T  c #056A45",
"R  c #15664A",
"E  c #047548",
"W  c #1C6655",
"Q  c #087A53",
"!  c #187657",
"~  c #12784A",
"^  c #276958",
"/  c #25765C",
"(  c #33695B",
")  c #386B65",
"_  c #2A7765",
"`  c #387467",
"'  c #347B6E",
"]  c #167D60",
"[  c #4E5250",
"{  c #6B504D",
"}  c #50655C",
"|  c #505865",
" . c #487773",
".. c #567877",
"X. c #4B6E6B",
"o. c #6B6C71",
"O. c #705B65",
"+. c #8D554F",
"@. c #94645B",
"#. c #A2695C",
"$. c #996B67",
"%. c #8C6C74",
"&. c #AC766A",
"*. c #B5796C",
"=. c #B77B73",
"-. c #A8706E",
";. c #9F5765",
":. c #C47A75",
">. c #CE687D",
",. c #DC5A7A",
"<. c #823F35",
"1. c #07844B",
"2. c #068756",
"3. c #178658",
"4. c #05955A",
"5. c #17995B",
"6. c #03934D",
"7. c #11A55C",
"8. c #0A9865",
"9. c #179667",
"0. c #159168",
"q. c #268768",
"w. c #2A9777",
"e. c #379777",
"r. c #318B71",
"t. c #18A568",
"y. c #16A876",
"u. c #17B879",
"i. c #0BA96B",
"p. c #2CAD77",
"a. c #22915A",
"s. c #468679",
"d. c #4B927C",
"f. c #1EC77A",
"g. c #BC8377",
"h. c #B18473",
"j. c #C6897C",
"k. c #D2877B",
"l. c #5A7B81",
"z. c #687A87",
"x. c #72798A",
"c. c #977B86",
"v. c #8C7583",
"b. c #A57E90",
"n. c #DC7486",
"m. c #16BB83",
"M. c #37A785",
"N. c #28B988",
"B. c #37B58A",
"V. c #379981",
"C. c #539187",
"Z. c #668689",
"A. c #778694",
"S. c #6E908E",
"D. c #56A896",
"F. c #49B897",
"G. c #58B69B",
"H. c #4BAE89",
"J. c #66AA96",
"K. c #6EAFA6",
"L. c #62B5A4",
"P. c #18CC8F",
"I. c #39D693",
"U. c #33CB8F",
"Y. c #34D6A2",
"T. c #33E49B",
"R. c #46C89B",
"E. c #48D899",
"W. c #4ECA91",
"Q. c #4CE59D",
"!. c #59C9A3",
"~. c #4AD6A6",
"^. c #57D9AB",
"/. c #4FD3AA",
"(. c #6ED0B0",
"). c #57E6A5",
"_. c #53EBAC",
"`. c #65E7A9",
"'. c #66E6B7",
"]. c #77E7BA",
"[. c #6DF0AF",
"{. c #67D09E",
"}. c #77EBC3",
"|. c #9A8896",
" X c #8E838D",
".X c #AC8E9B",
"XX c #A58A97",
"oX c #AC929E",
"OX c #A5929D",
"+X c #B3939D",
"@X c #B4888D",
"#X c #AC95A2",
"$X c #AA98A7",
"%X c #B396A2",
"&X c #B399A5",
"*X c #B49CAA",
"=X c #BB9AA6",
"-X c #AF9CB3",
";X c #92ACAB",
":X c #B7A1AE",
">X c #BBA6B4",
",X c #AAAAB3",
"<X c #C88B83",
"1X c #D48C86",
"2X c #CC9487",
"3X c #D4948B",
"4X c #D7968B",
"5X c #C99895",
"6X c #DB9C94",
"7X c #D79996",
"8X c #D98E95",
"9X c #E49C98",
"0X c #E7928F",
"qX c #D9A399",
"wX c #D3A38F",
"eX c #E5A69C",
"rX c #F3B09F",
"tX c #CD9DA4",
"yX c #DAA8A3",
"uX c #C3ACBA",
"iX c #C6B2BD",
"pX c #DAB7B9",
"aX c #D6ADAF",
"sX c #E7AAA6",
"dX c #E7B3AB",
"fX c #E8B7B6",
"gX c #EEB0B3",
"hX c #E89EA1",
"jX c #84D4B8",
"kX c #8AE7B7",
"lX c #BAB1C4",
"zX c #C8B8C7",
"xX c #CCB8CC",
"cX c #EABCC5",
"vX c #9EDFCB",
"bX c #D5C2CD",
"nX c #D4C4D4",
"mX c #DBCCDC",
"MX c #D8C8D5",
"NX c #CCC5D3",
"BX c #ECCBD0",
"VX c #DBCFE1",
"CX c #DBD5E6",
"ZX c #D6D9E9",
"AX c #E3D4E4",
"SX c #E5DBEB",
"DX c #EADCED",
"FX c #E5D9E6",
"GX c #EBDEF1",
"HX c #ECD4E7",
"JX c #EAE2EE",
"KX c #EDE1F2",
"LX c #EAE5F4",
"PX c #F5E7F1",
"IX c #D4E4EF",
"UX c #E8C1BC",
/* pixels */
"!.].kXd.| l.l.I Z./.l.I I G I F.kXW./ s d W q.U a u u e s W ] a r s s r _ R.U s s ' /.W s U.w.- i M.[.{.T.S < - ; y t.p.6.`.f.q ",
" .J.kX{.| o.l.| l.jXC.I | I ` /.].'.p.M d e H T L s e s H a _ L h s s G U R.' J G U /.D.P N.V.- e M a.a.R i : : : y f.t.q W.[.n ",
"O.d.kXjXl.z.z.z.l.(.(. .| I ) F.N.w.W d h H L N./ e r u s s ^ U h s H I U F.V.H G J  ./.M.V.H : u r 6 b b m i + o b u.f.q 6.[.5.",
"v.d.jXjXA.z.x.l.D.K./.D.` [ I ) H.B.H.Y s a L ^ 0.L h s u s i i e L L s H V./.' I J G U _ ' i s d d a K y ! B b ~ A t.I.p 5.).a.",
"A.Z.K.;XA.A.x.A.S.J.{.(.L.C.} V.`.'.].r.a G H g 0.' y - e ; - e - s a : e H C.D.) I I G ( ' L L W s s r L m.T 3.[.5.v b v W.`.7.",
"z.A.A.v.A.A.A.Z.Z.(.jX(.kX!.` ) w.W.kXp.K H a m L a e ; r ; , ; - - r u s r y W ' I I I q.U e L q.s s e y m.5.1.[.p.. . 3.).W.f.",
"x.A.A.A.K.A.x.x.Z.].kXC.].kXM.I P e.[.W.K g C u r + ; ;   - : - = : r 3 d G P P ' ) I I V.I s s q.^ e e e 0.p.9.`.6.X : S 7.f.7.",
"x.S.S.K.K.K.A.x.Z.jXjXe.D.kXR.( Y q.{.].q.M p > @ , o o - o ; ; > & $ e r r l.) _ C.U I r.' s u ] ! d u e Q I.T.p.q * # q p.Q.Q.",
"Z.Z.A.A.K.K.Z.z.Z.(.kXH.d.kX`.( I ! {.kXW.R t - - O = $ > ; # * , ; e > h w C } s.d.C.U ) V.s e W / 9 e a 4.p.4.n 5 ;   3.[.4.t.",
"l.z.z.z.D.K.C.l...L.vXG.e.[.(.( U e.'.].E.Y % ; e o - O d w 1 k @ > , , d C g C S.d.D.` U r.W y ! W y e a Z 4.S V S 8 X 3.[.S v ",
"C.l.l.l.l.K.D.l. .C.].].W.].!./ W _ B.p.~ t , > ; ; O X 3 f z { z < > : d [ C [ I S.L.D.P W W M Y 9 8 u y 9.E.T $ T T X 6.[.5.5 ",
"C. .l.l.l.D.D.C. .s.D.jX'.{.w.R P P q.3., 4 e ; ; ; $ z { +.@.#.#.F 4 = 9 C [ } [ [ J.J.) s a i M M i , m !.U.0 O i E * n [.W.q ",
"D.s. ... .D.L.C... .( w.F.W.F.q.P P r.P t t = ; , 1 x -.j.<X2Xk.k.j.+.k 3 f } } o.Y ..d.s.g s p m R B : L ).H.b ; 6 E 0 = U.).1.",
"!.C.'  .l.C.B.V.s.` ) e.'.!.kX!.! R w.p t > o 3 t k &.j.4X4X6XeX0Xk.eX#.c t D o.} } } o.` K L m u i T a i Q.Q.E 6 - Z b + S ).Q.",
"}.!.s.X.` H.!.`.G.r.( G.}.q.H.}.w.R ^ r t < , l c F 3X1X6XeXqX6X6XeXeXeX&.j f } o.D } o.} R B b u u Z m 6 p._.t.b 6 N 7 + X S 7.",
"H.w./ X.' {.(.!.}.H./ F.}.q.q.'.!.Q g 1 w 4 t z c &.4XeXeXsXsXrXrXeXwXrXdX@.t { O.} [ } } Y R m b 9 B Z 8 ~ `.p.m i i   o $ q 7.",
"F.w.) ^ e.}.F.q.'.(.w.e.}.H.~ !.^.! d 1 3 f f z <.j.7XfXBXgXdXdXrXrXdXUXsX8Xx z s.{ D D } Y M B B y b B y i i.~ O i A i & + Z Q.",
"/.M.U U _ '.R._ H.].p./ '.E.R M._.P > 3 3 f l c +.5XwXUXcXcXUXdXfXUXfXBXcXsX#.j { { C D D [ M i L 0 i V : : 7 6 0 4.8.m.b   E Q.",
"B.V.U ) _ G.G.^ r./.w.K F.Y./ p.N.p 3 % 1 l j c #.7XeXfXBXcXgXfXpXfXfXBXfXyXeXc l { z D C [ V 0 b m i 6 : , - o E Q & 8.8.X A I.",
"L.(.Z.l.Z.K.].D.C.].L.) d.^./.R.w.$ 3 3 < f 2 x <X6XgXBXBXBXfXdXUXfXBXBXBXcX+X$.2 D D C D C C p u b 3.S 6 y : y y.8.@ T I.b n ).",
"D.(.D.C.C.D.}.(.G.(.L. .) s.M.N.M 3 = $ 3 4 4 x $.-.aXpXpXUXUXUXgXfXpX&XXXc.%.F 2 w D f D p C p i 9.`.U.0 6 y : y.N.& m Y.Q 0 U.",
"l.!.G.'  . .L.(.!.~.r.) ' U _ M.g < # + < 1 < l O.{ O.%.@XeXdXsXgX2Xh.$.=.tX5X=.x < w w w g p V T _.].E.n 6 y : ! T.7 & P.0.  2.",
"_ !.(.D.C.X.r.d.H.G.C./ ) _ w.V.3 # @ % % . < $.=.<X%.-.*.g.qXdXdXg.g.&.@.O.+.*.+.2 w w 3 w 9 V ! Q B.[.~ 6 : ; m P.! 6 m.2.  8 ",
"V.B.F.V._ ) / d.~.~.^.B.^ ( q.M 1 : @ % # . l +.l [ d { #.:.eXgXdX2Xh.-.l e o.k +.j 2 w 1 w 9 V a i 4.[.p.* 7 : o 0.P.4.8.m X + ",
"_ ] w.q.^ ( ^ G./.q.G._.0.U C 9 > # @ # % @ x +.x c.l c.$.-.3XdXeXwX$.@X%.%.b.-.<Xx j 2 9 = 9 d C i Z _.I.q : : o : K B b # o & ",
"W w.F.B.^ ^ W R.^.! w.}.M.m i 9 # # % % @ @ @.1X-.=.tX@X@X<X<XeXwX4XhX5XyXhX6X9XeX:.c j w = 9 9 V p n W.`.9.N & : X   m i.i X : ",
"W V.F.Y.] W W B.'.0.W ^.R.K y # $ # # # @ 1 -.0X1X4X7XhX<X<X1X6XwX6XeXeXrXhXeXrXrX9X+.2 w , , p C i 1.E.[.U.E - O : i 4.T.E o o ",
"W Q ] Y.0.R R 0.'.M.T R.I.b 9 % > # # . @ < *.1X0X9X7X6X3Xk.j.eXrX1XeXsXsXeX9X9X9XhX#.< % > $ 9 d b E 5.S v 7 - o o 7 m m.9.& O ",
"T T Q U.N.L L ! /.~.0.U.B.p = = % 1 % @ % 2 -.8XeXsXgX7X8X1Xj.sXeX4X9XgXgXgXfXgX9X9X=.< < % * 9 p p 8 5 6 6 : : : o o   ] P.6 - ",
"L R L w.N.Q T L 0.~.E.N.Q 9 # > < > % % 1 l -.1X7XgXaXyX<X<X3XsXeX6X1X1XsXgXcXcXrX8X-.j 2 % = = 8 d p 8 6 6 8 & X o : o T P.B   ",
"T B T y./.m.W L Z Q 8.2.B , $ $ 3 3 % + % 1 +.8X8XsXsXn.<X:.3XgXgX4X4X:.9XgXaXfX9X4X$.1 3 # = 9 9 8 i 0 6 : y : & o o   y P.9.8 ",
"T B Q m.N.m.Q T B N Q y.L . ; $ > t 3 $ . @ c <Xn.4X:.=.9X:.=.8X3X<X3XeX0X8XhXhX4X3X#.. 1 1 # = 9 w u 6 6 : 6 7 o & o o m P.u.T ",
"E N ~ E i.N.E B Z T 9.y.p # $ > t 3 t 3     > -.:.:.:.k.1X6X1X1X2XeXsXeXeX9X4X0X4X1X@.  + 1 # = 9 9 9 5 8 : y 7 & : & : b S 6.n ",
"T T Z 8.^.'.8.Z T A T T 6 # O $ t 3 l 3 . . . @.j.j.g.&.5X7XtXhXhXsXsX6X<X1X6X6Xk.7Xz   O % 1 * 3 9 0 6 : : y i * : & & & 3.Q.a.",
"Z A T u.~.'.y.Z N N n i O @ $ ; f > z r   o   z j.j.*.+.+.;.,.,.n.n.>.;.-.j.4Xk.1Xg.<   O % 1 $ 9 * 0 0 y : & N S 5 O * S Q.[.W.",
"T A Z 2.8.^.I.E B B b : + # # , d 3 z 3   O   > #.j.k.>.;.,.n.n.,.n.n.>.1XeXwXk.2X{   + . # > = , = w 8 8 8 Z U.E.b & X A 7.W.).",
"T A T A T R.E.4.N N i O   X @ 1 3 3 z 3   -     x h.g.j.:.n.n.n.n.0X0X4X9XqXj.k.=.%   .   $ 1 = = 9 > 0 : T u.~.`.1.* * * 5 u.`.",
"4.L A A R N.^.i.Z n i $ X . % 3 3 f l ;   + -   x *.*.h.j.=.j.<X8X1X8X6X4X3X4Xj.@.      - # 4 1 , * 5 8 0 m.8.S ).p.* * * * ~ `.",
"i.Z A A B i._.E.t.N 9   . + @ > 3 4 t $   O +   x #.*.j.<X1X6X<X8X8X6XeXqX3Xj.j.+.  o . O @ < = > * 9 0 i P.! b E.I.q X 5 5 n Q.",
"N.E B A 2.N.Y.B.i.n * @ . @ @ > ; ; 1 O X #     z h.#.*.j.yXsXdXsXrXdXqX6Xj.*.j.+.    @   # < > 3 # * 0 y N.u.6 p.T.Z # < 5 1.`.",
"'.m.1.B E 2.4.i.4.b +   # . # # % @ 1 . + X O   k h.h.*.k.k.dXsXsXsXsX6X2Xg.g.j.F   X . # @ < = = * * 5 y 8.Y.i 5.[.p.S * q 1.u.",
"m.i.T B Z 2.i.8.y.V . X . @ % % % # #   ; -     k h.h.#.*.j.4X4X7X7X3Xj.g.=.:.j.F   X . . . < 1 = $ $ 9 y T P.2.u.Q.I.6.5 * * p ",
"N.i.T Z B 8.m.T 1.i . . @ % # @ O . @ . .   . @ x h.g.h.*.#.*.*.*.=.*.*.h.j.g.<Xx   o   + $ @ < w $ $ 8 y 7 T T 1.i.f.6.0 , 0 E ",
"'.Y.Q B B i.m.m b 8 . . # $ . O . # < % @ 1 2 2 +.h.g.j.j.*.*.&.&.*.*.=.g.2Xj.j.+..       . % < 3 , + & 7 9 : & S E.T.Q.9.q 6 m ",
"E.).8.A B 4.P.T 7 . .   % .   @ . < < 2 z k 2 k &.h.j.j.wXj.j.j.j.k.j.j.j.j.j.g.-.l     # = @ < = d 9 * 9 6 5 0 f.E.S W.).S & & ",
"8.).u.A B T P.2.8   # . % 3 [ [ 1 < j x F k k #.h.g.j.j.2Xj.j.j.2X2X2Xj.j.2Xj.g.g.@.F 2 < { > % 1 , *   9 p 0 v W.W.v 5.[.7.5 * ",
"E Q.U.E B N y.Q . # ; r J O. X%.z z F <.<.+.#.k.g.g.4X2XwX2Xj.j.j.j.2Xj.2Xj.2X2Xg.g.#.#.x {  XJ 4 3 : O * 0 9 0 f.Q.n S ).f.6 * ",
"Z N.).4.N b T K [ O.{ { O.O. X>XBX+Xh.h.j.j.4X4X2X2XwX2X5X4XwX2Xk.wX4X2X2X2X2XwXg.j.g.5X*.@.zXxX$XXX X..X./ M q 5.[.a.n E.W.0 * ",
"Z B.[.U.8.(  XlXxXAXxX|..X.XmXAXmXHX@X<XqX3XqXqX7XqXyXqX5XwX5X4X7X6XwX2X5XqXwXwX2X3X2X2X@X@X:XVXCXAX:X|.>X,X;X^ T I.W.7.E.u.5 * ",
"4.P.P.y.} @XzXVXVXSXnX.X%XXXxXSXVXSXiX@X5XqXqXqXyXyXdXaXyXyXqX6X2XwXwXqX7XgXaXsX5XqXqX5XtX%X-XHXCXFXiXoXOX|.NXIX;XN.U.Y.U.A 5 : ",
"S E n [ b.%.$XZXVXGXAX#X%X.XuXDXVXCXbX|.@XqXqXqXqXdXdXdXyXdXdXyXyXeXqXqXyXdXfXaXqXqX5XyXpX XzXAXCXFXbXoX%XXXxXSXCXvXjX0.i.S * 6 ",
"n b x.*X X X$XAXAXSXHX:X&X#X>XGXSXSXxXXX5X+XyXaXqXqXdXdXdXdXUXdXfXdXsXgXsXdXdXyX7X5XpXHX.XXXzXSXFXFXbX|..X.XxXAXZXIXlXjX).7.5 : ",
"b S.ZX$X|.#X:XHXFXVXKX>X%X&X>XSXGXAXxX*XtX.XpXBXUXpXaXdXfXdXdXdXdXdXdXdXeXeXsXqXaXBXPX>X.X+XuXAXmXFXbXoX&XOXzXFXIXZXZXIXkXf.v * ",
"( xXxX X#X$XOXNXFXSXKX>X#X%X>XHXKXmXnX%X*X%XzXPXDXBXBXpXfXgXgXdXrXyXrXsXdXpXpXBXPXPXAX>X#X.XuXHXAXDXbXOX+XOXzXFXCXNX-XNXNXE.N 5 ",
"A.lXxXv.#X,X=X>XVXAXGXuXoX&X*XFXDXmXMX%X%X&XiXPXLXKXDXtXtXaXpXcXdXdXUXpXbXBXbXJXFXSXPX:X%X+XuXAXmXDXMXoX%X.XxXVXAXzXXX#XzX^.6.* ",
">XxXlXv.b.zXBX$XxXVXKXzX&X=X&XHXGXVXbX%X=X=XiXHXJXAXHX=X#X#X>XPXJXJXFX:X&XoXtXHXJXLXIX>X@X@XzXZXSXDXxX+X%X.XxXmXxX#XXX|.zX{.f.q ",
"xXlX>X%.c.nXGXNX#XCXJXnX&X*X&XAXSXVXMX*X=X=XiXKXJXFXFX=X+X:XtXFXJXDXKX=X+X=X=XAXKXJXGXiXoX.XuXSXSXGXmX#X%X%X>XVXSXzXc.%.NX;XE.7.",
"lXzX>Xx.c.VXGXSX#XlXKXnX#X*X*XDXDXVXMX$XtX+XiXKXJXDXDX:X+X+X>XFXDXDXDX=X+X=X*XAXKXSXGXxX.X+XuXSXSXDXVX#X%X#X>XnXJXxXXXc.lX;XU.u.",
"lXNX-X%.c.nXSXLXuX$XLXMX#X=X:XFXDXVXnX*X*X=XuXJXDXDXJX:X.X+X:XFXDXSXKXuX+X+X&XmXGXSXKXMX+X.X=XFXSXSXAX*XoX%X:XnXLXCX|.v.>X;X3.n ",
"lXxX-Xv.v.zXGXGXAX|.VXnX%X=X:XFXSXVXMX&X=X%XuXDXDXDXPXuX.X+X&XAXGXSXGXzX+X=X%XmXKXDXDXVX%X.X*XAXSXSXSX>XoX&X*XNXAXSX#X%.uX,Xs.4.",
"NXlX-X|.v.:XAXGXDX|.zXbX%X*X*XSXDXVXMX*XtX=XuXDXDXDXJXiX.X+X+XmXDXDXJXxX%X+X=XbXKXSXDXAX=X.X#XAXJXSXDXiX.X*X*XnXxXSXtXo.>X,XD.~.",
"NXlX*X|.v.#XVXSXSX|.,XxX&X&X=XGXJXmXmX*X%X+X:XDXJXFXKXiX+X+XoXMXGXDXJXMX%X=X=XxXGXSXGXSX=X.X#XBXSXSXSXxX#X#X$XnXxXZXlX%.lXlXZ.I.",
"xXlX$X|.c.OXnXCXFX|.$XzX%X%X>XSXDXVXMX:X=X=X:XFXJXSXKXzX.X+XoXbXDXSXJXmX+X=X+XzXGXSXDXDXuX.X.XxXSXSXDXmX#X#X-XxXxXCXiX%.lXlXd.R.",
"xXxX.X|.|.|.zXCXDX X|.>X%X=X>XSXDXmXmX:X=X=X:XDXKXDXPXxX.X+XOXxXSXSXJXAX=X=X+XiXGXSXGXDXuX+XXXxXSXSXSXVX*XOX*XxXxXZX>Xo.-XzX%.B."
};
