/* XPM */
static char *_bbe9456d3164de4ddc0de3410985358K9DVDYrphNo0l6tl[] = {
/* columns rows colors chars-per-pixel */
"64 64 61 1 ",
"  c #371F07",
". c #452B13",
"X c #442F19",
"o c #4A2E1E",
"O c #4D331D",
"+ c #51351E",
"@ c #463120",
"# c #4D3423",
"$ c #4D3A23",
"% c #513623",
"& c #553B24",
"* c #583E26",
"= c #513728",
"- c #553D29",
"; c #593F29",
": c #553D30",
"> c #5A3E32",
", c #5A4027",
"< c #56422B",
"1 c #5C432C",
"2 c #574730",
"3 c #5D4532",
"4 c #5E4933",
"5 c #5E4538",
"6 c #5E493A",
"7 c #61462E",
"8 c #614631",
"9 c #644B34",
"0 c #694E36",
"q c #614539",
"w c #664D39",
"e c #694E39",
"r c #645037",
"t c #6A5037",
"y c #65513B",
"u c #6C533C",
"i c #71563E",
"p c #72583F",
"a c #6A4E41",
"s c #645140",
"d c #6E5541",
"f c #6E5943",
"g c #6C5A4A",
"h c #715641",
"j c #745A43",
"k c #795E46",
"l c #715748",
"z c #765C49",
"x c #795E49",
"c c #7B6146",
"v c #75614A",
"b c #7C624B",
"n c #7F6450",
"m c #81654E",
"M c #82684F",
"N c #826651",
"B c #856A52",
"V c #896D55",
"C c #8A6E58",
"Z c #8B7156",
"A c #8D715A",
/* pixels */
"+*&+,70ick00k0ki41*1&,dtj9tju97&9upr2,,,wr7jbjvr7r1779j0uhur9900",
"70t0iiimBc0ickkiihpjt0bknhjcphkhujjy7444ru0jnvnvcctp9uMkckjuuit9",
"0pkpkkkBVmikmcciivbnpubcutxnchjupcvpr99tfiycncncbbpjuiNkxcjhkku9",
"0pppkppmmmiikikiijhku9bc99ivuut1pfju0rtpjktvbvcfuitjuuvtuuhjkki0",
"0mmpmipmmmikkikkvcupttbhi9999uheuhhurukvuuyxbudyuurjuthr9ujhhhu9",
"immmmkkBmmiii7kcVnift9j9t99tucvuufdutcvc9w9kbtdubjui99itujvkhftt",
"imVmkpkBmm0000kkBnxbu9u9,9uxbbk9hftydxxj313jvdfxnjtjt7ptpkkkjhu9",
"pmBmkipBVm00iimmbnnVctu799kkhkktftwwuzju941jbdxbbvich9hujhhfkcht",
"ikckkckmmm00kkcibnnVvri9tuhhjje09euwwuue931xnwzncchk99ktpkjjbbk4",
"ikmkkcmmmm0iccckbbnVctjedcbkjxjidddwqedd35<dzdvxnbhktwxhhkkjvbk9",
"mmVmmcckkm70iik0ukhct9h9tkkuikje9w93;333-5;wdzndju9919kukkkhxbkt",
"kmmmcmcimV00kkmihkhkutcuwcmhhNNh5wuwww9q;3-9uwzdhd0t9tNcfkkjcchy",
"0iikmmmmmV00kkmkkxfd99ci8kbfhNNi39aauaewq3-ea3dzdu9itechthkkckw1",
"0iikcmmcmV00kkckjxut19xu1hchhmmewwwq9wdddwqlzqzNjhtu99u190ujjd9,",
"kkkiikkimmiimmmkichi9tcuukcxmmmhddawqwdaew3hlelxbkhjt9u119990999",
"iii0ii007i*7ii07*911&*9&99998q87-33==##@=-=<9wa8t9,9,&1O1,*;199t",
"777,7+**;*;;%;>+uuuhu0amzu;;0u0hqa0i0*700i7**77*&79ikt0i0i70itii",
"kkkik*00eeiu0uu8hhhhhuiau07qjkhkimqi0*0iii070iiiubmmBBmkkc0ikicc",
"mmmkk,00q0uuq007huuih0q0e018jkhzai>87>0i0ii0immktmkpmVmikmtikcmc",
"mcmkk+00uukhahaqu0q00087ie;1akhza0*;>*0i0iiiimmiimmkmVmmpm77kcmk",
"VVVVm,0ihukmhhhq00q0aiuikh8qhlhkhu>90*iiikkkmmiipmmmmmmVkm77kmBc",
"mmmmm7iiiquaahh8q88uhhhmlh0umkeeia8e070iikimmmkipmmmmtimkk70cmVm",
"kkcmm+0izuilmmxq;;0uhauau08qhh0q9w8w7,0iiiimmkiikmmmmkimii*0mkmB",
"kkkmm+iimuealmmq;70hhe00i018ih0u9w3w7+0ikiimmmii0mm0ipkii0*0cimB",
"kcmmm,iicipmmNla;quihhhi0h;>ukh8353y9<uxikkkkkmkimmi0000007ikkck",
"mmVVm7iikiiklxxq0uhhjjhaam77ujmq9w4y9-th0ikkikkkimciii0iiiicVmVm",
"ccccc*timimmmmm0q0iiui08hj88jmkeydwd9-9uiikkkkmkickimmki0i0kmcmc",
"iiiic7iihiimlma80uuihhiqam88hah0us4y3&9wkkmmmmmkimiimmiiiiiccimc",
"kiipc,iimalmjli>q00uiau00h18i0uqww3r9*wyiikkkmmi7iiikmiiiiikkiii",
"ckccc,0tmjmmmmmq80q0uhh080;8aih034<69-9ukkkmmmVi,ikkkmmkii0ikiki",
"mmVBc,tiammmllh800eehmhh7q;8h00q12&3<&99iikkkmmi+0i0ikkmikimmkmm",
"tiiit.*,q88uqeq%**=*7q8780;8i88*-<#,-O<17,7000i,+777700077*0iik0",
"+700*7akm0>kllahh77&;X&3-191,94,*4yrwyjju8*0hihhuii0t7u708qq===o",
"ii00ikkkmmqCVNVAh9t9u,tjkcchjkpw1rpppvnb08*ummmmmmmmb*71zhzlwq>>",
"kkiikmmi0aqmmlmNu9uuk9hcbbkhhkt1tfvfpvvp87*immmmZmmBm+;0hhxzaqq>",
"kkmkkkkki0qNNxamu9jhk8tjnbxjcvt,ucvipcft>**imimmBcmVB%8hqwllq>>>",
"imVVmkiii07CNmamuumxx1ekckjjbbu*tffppvvp17*imjmhpcBZV7eeaaxzaqaq",
"ikmmmmiaq;+mmahauumbc<0kuutuhky&uffrrutr008mmjmmccit07hiklNxaaaq",
"kiimmVk0i0>mmmmmduckc8tjjkfuhcu1pvvr112,uiqmNmmzZc7+7+kihalzeqq>",
"kmmmmmmkkkqmmaqabuxxbefjkku9ttr,uvct1779u0qmmhmkBi00m7iiualzh00>",
"ikmmVmmim>0mammmjxbbkdhkbxhfut09rvpr947rtutNhmmmh80ul>0mliuzke87",
"ikmmmmkim88mmqamhhkjt9thvkkjkuu9rppr907rtt1mkmmhj0jmm80klhlmzaq7",
"ikmkkki0m87uqmq00euu99yhcxkckkurrurrtt7r01%bmlheh9lkm;7euuhlh0*%",
"mmmmmmkim08u0q0q999t07tjjkhhhkuy1r72rr7rj9;Cmmmixukkm8ekhhhhhq7;",
"kkmkmmkij0qqq8w0ttuu919jjhithht9rr11r77ru7;Cmjhjxhxzm>elhhieeq87",
"kkkkmmmim0008quhxjjki90jkkhfjch4pprrpttp071Bjhjjzamzz7qqhhie0ee8",
"mmmmVCVmm8788qhejupju11uuputup9+4rrrprrpiu0Bjkmmkhmlm>q0kzliikju",
"iiiiiii0u1+%*8e981101O+1*17,14O O$+242,479&e78q19>q>7o*71q088087",
"+++++.7++;+%*o*+&wu9wduhw<X1w,yfs65s6@$:55=@o==o;;;84399w9&9uww,",
"i0i0q+0*70;0070*9uuyu9491,O9uwjxggsgs:5656qqaaq>uuhjfjhcuy<uzjxd",
"kkkii*i7800ii08;jdudh1*9*-%9fdxfsgsvg6ss2qahlle>weedduddtw<ujjbx",
"kikkm>i00mai0;7+jjudjw<3,7-9udjyygygs2wwadlall0qqwduuuut991tduvx",
"mkkxxqmiimij0*>+fbkuhd94wt39uukuffyft3wtzzjzhma070dutduw9w9fjdbx",
"mkxmm7k0imhhi707hnvuuhtwuy<9twhddfry919ydljzhmiq*9t9wtw9wu9jvjvj",
"Vkkmk*i0ukihu707fcjdhfufjt<9u3tuuiw98;0uuhjjhmj01uhddjjt9t4uxdxj",
"mkkxk>iaukimi8u8ufdjjttnnd1ud3tdpj9w8;ihjjjjmjmi;wduujfwyu1uhdvj",
"vkkvb4uumuiueuu7ujxdyuhjx9<jwu9fputtp,ttkjiiikiuetyuhfuwtw<eduju",
"ckkcm9hdmhhjhjk09ufuwtdhu3,u9kpuprrtc&ttkcbmmBmkuudfdutwut3ujhvj",
"xjjkc9jjh00uihi7wufyeyuu991uybjrf44vn,rptufjmmkjjjxjhuuuuy8ukhnx",
"xhuuk1jjkuuhhkj9uuhu999993<uwhu9prrvn2rpfhkkkmmxujxkfuufdu9ujdxf",
"kdudk1jxcpixxxk09tuu93499*&u197r2rffp<yyfvcbbnbj<wuut9ujfd9djfxj",
"cjihk8kckuhjhji9wwuuutyuy<*drrrc2fvsr<fyrfvnnbfw<9eewedkut9dvjbv",
"chuhk7jcxhkcjjjuw9ufjuuju3*urprf2ygfr$rryfvnvnxf19wt9yudtu3ukfbx",
"kptuj<djt9uu9009999uuw9uu1%42fr2222rrX2444646ydd<339419wuu1ufuzd"
};
