/* XPM */
static char *_43e9e521fae4462bb744c2b79c2f58c7vFuKF7OfdP9XVNJ[] = {
/* columns rows colors chars-per-pixel */
"64 36 256 2 ",
"   c #0C0101",
".  c #060506",
"X  c #150200",
"o  c #1A0E0C",
"O  c #190907",
"+  c #1D120D",
"@  c #16170A",
"#  c #0A0B13",
"$  c #1A0C13",
"%  c #1B1415",
"&  c #0B160F",
"*  c #260706",
"=  c #350604",
"-  c #241409",
";  c #36150C",
":  c #241A1C",
">  c #261817",
",  c #351917",
"<  c #2F0C13",
"1  c #29231B",
"2  c #36241B",
"3  c #33220E",
"4  c #191A25",
"5  c #261C22",
"6  c #381E23",
"7  c #192B2A",
"8  c #2A2626",
"9  c #382828",
"0  c #292A33",
"q  c #31322F",
"w  c #0D2313",
"e  c #471C17",
"r  c #561914",
"t  c #4C0B07",
"y  c #4A231A",
"u  c #55281B",
"i  c #6C2A19",
"p  c #472A27",
"a  c #552927",
"s  c #493537",
"d  c #523230",
"f  c #71312C",
"g  c #5D1722",
"h  c #54433B",
"j  c #744739",
"k  c #373646",
"l  c #463B46",
"z  c #5C3D45",
"x  c #633F43",
"c  c #584945",
"v  c #55494B",
"b  c #6C4946",
"n  c #66544A",
"m  c #714F50",
"M  c #715867",
"N  c #786B6F",
"B  c #6B6356",
"V  c #B91E18",
"C  c #B72D16",
"Z  c #853A35",
"A  c #94362F",
"S  c #AD3929",
"D  c #B73926",
"F  c #B03230",
"G  c #D9290A",
"H  c #D93606",
"J  c #C42B18",
"K  c #D73619",
"L  c #CB3014",
"P  c #E63C06",
"I  c #E53818",
"U  c #E12B15",
"Y  c #C63926",
"T  c #D63A26",
"R  c #D13635",
"E  c #E73D29",
"W  c #BB4D1A",
"Q  c #944C36",
"!  c #BA472A",
"~  c #B8582C",
"^  c #BA4639",
"/  c #B95637",
"(  c #A94D33",
")  c #B56630",
"_  c #C6450B",
"`  c #D44708",
"'  c #C84916",
"]  c #D45518",
"[  c #D44D17",
"{  c #E44617",
"}  c #EC4D17",
"|  c #E4641D",
" . c #C8462A",
".. c #D74629",
"X. c #CA552B",
"o. c #D5552B",
"O. c #CA4A36",
"+. c #D84738",
"@. c #C85738",
"#. c #D8573A",
"$. c #E8452A",
"%. c #E84A35",
"&. c #E5583A",
"*. c #F14F30",
"=. c #D5652A",
"-. c #C66438",
";. c #D8663A",
":. c #D67437",
">. c #CB732E",
",. c #E5673B",
"<. c #F76937",
"1. c #EE7836",
"2. c #C1601B",
"3. c #B83D40",
"4. c #DF3B46",
"5. c #91514D",
"6. c #A74B48",
"7. c #B94A42",
"8. c #BB5747",
"9. c #A95754",
"0. c #B65C59",
"q. c #AF534D",
"w. c #906659",
"e. c #BA674B",
"r. c #B86759",
"t. c #B17051",
"y. c #B25E62",
"u. c #92706E",
"i. c #A37569",
"p. c #B97979",
"a. c #AF706B",
"s. c #835766",
"d. c #C74A44",
"f. c #D84B44",
"g. c #C95647",
"h. c #D75A47",
"j. c #CA5C55",
"k. c #D85A57",
"l. c #D14D53",
"z. c #E74C47",
"x. c #E55746",
"c. c #F45744",
"v. c #E65957",
"b. c #F05352",
"n. c #CA6748",
"m. c #D96648",
"M. c #CA7748",
"N. c #D97749",
"B. c #C86659",
"V. c #DB6A54",
"C. c #D76757",
"Z. c #C77657",
"A. c #D77659",
"S. c #E36D4B",
"D. c #E86649",
"F. c #F8674B",
"G. c #E67847",
"H. c #E66857",
"J. c #F76A54",
"K. c #E67858",
"L. c #F87657",
"P. c #F67647",
"I. c #D55F65",
"U. c #E85D62",
"Y. c #C76965",
"T. c #D56968",
"R. c #C97767",
"E. c #D97467",
"W. c #D87B77",
"Q. c #C77A76",
"!. c #E76967",
"~. c #FB6867",
"^. c #E77966",
"/. c #F87868",
"(. c #E87B77",
"). c #FA7576",
"_. c #EF6973",
"`. c #D4853A",
"'. c #E1893B",
"]. c #95857A",
"[. c #B3867A",
"{. c #B5845B",
"}. c #D5954D",
"|. c #D78556",
" X c #D79A55",
".X c #CF8449",
"XX c #F8864B",
"oX c #E5855B",
"OX c #F38459",
"+X c #EE914F",
"@X c #F2A45C",
"#X c #D88867",
"$X c #D98779",
"%X c #CF8D72",
"&X c #E7886A",
"*X c #F68767",
"=X c #EB9568",
"-X c #FA956B",
";X c #E68878",
":X c #FB8A76",
">X c #E99976",
",X c #FA9576",
"<X c #F8A767",
"1X c #EAA675",
"2X c #F1A572",
"3X c #D8B16F",
"4X c #F2C278",
"5X c #8F7B86",
"6X c #B77B88",
"7X c #AC788E",
"8X c #E97E83",
"9X c #F97D84",
"0X c #D47D83",
"qX c #96898F",
"wX c #B38D8C",
"eX c #B9A792",
"rX c #AA96A8",
"tX c #B6A9B4",
"yX c #C78A86",
"uX c #D48786",
"iX c #C69788",
"pX c #D89786",
"aX c #D58C94",
"sX c #D79A97",
"dX c #CC9495",
"fX c #E98886",
"gX c #F98985",
"hX c #E5968A",
"jX c #FB9784",
"kX c #FB8992",
"lX c #FE9798",
"zX c #E39997",
"xX c #DBA498",
"cX c #CEAD93",
"vX c #FDA696",
"bX c #F3AD91",
"nX c #CA96A5",
"mX c #F49AA2",
"MX c #D8ABA7",
"NX c #DCB4A7",
"BX c #CFB0AE",
"VX c #E7A7A8",
"CX c #F9A9A3",
"ZX c #E5B8A6",
"AX c #FBBAA6",
"SX c #F0B6B7",
"DX c #FFC299",
"FX c #F1C5B0",
"GX c #CFBCCD",
"HX c #D9CAD8",
"JX c #D8C6CC",
"KX c #E5D8DA",
"LX c #F0D3D3",
"PX c #E7D9EA",
"IX c #E8DAF1",
"UX c #EFE4ED",
/* pixels */
"B.Q.cX1Xt.+X=.] 1.1.P.} } I P.,XgX).E.$XfXCXR.:Xk.v.).v.).gXvXA.n.OXjX~ -.,X-.oX=X:X*XF.' F.$.*.J.H.ZXxXH.,.<X}..X#X|.:._ P.;.V.",
"uXdXcXcX{.1XoX:.>.>.G.o.c.z.:XjXlX:XE.(.;XvXT._.!.!.).f.^.>XFXjXE.K.,X@.@.&XV.,Xm.K.m.@.X.-XG.#.L.H.ZXpXS.&.<X XZ.A.A.;._ 1.#.H.",
"aXMXBXeX{.3X#X=X2X#XoXg.k.k.fXhXlXgXW.(.;XlXT.).v._.gXT.a.t.{.w.R.e.$XA.T.jXH.V.m.H.n.@.n.DX=Xn.L.V.ZXpXm.#.<X X#X=X#X:.] P.m.H.",
"0XcXFXcX5.a.|.>XDX1X&Xd.k.l.8XhXhXuXE.(.).lX~.9XU.U.kXY.Q u p @ 3 X y f q.vXjXk.~.:X*Xh.m.bX>Xn.K.N.ZXiX;.o.<X X1X>X&XG.` P.#.V.",
"V.&XbX3XQ |.N.OX<X=X/.O.z.f.:XvXhX$XW.;X9XmX9XkX9XI.0.a ; X @ @ w . .   y r.,XC.~.jX:Xc.Y :XH.@.L.C.NXiX-.o.@X}.#X&XA.;._ <. .h.",
"#.#.) .X~ @XG.;.N.N.OX&.z.%./.hXzXhX$XgX9XkX_.9X8X5.f * X X , : w 7 7 O * u q.B.K.:X/.&.L /.c.&.J.Z.NXcXm.X.@X}..X#XN.;._ <.O.D.",
"..o.M..X) =XG.;.=X&X:Xh.z.f.^.;XbXzX0XkX9XmXT.aXy.a < * p d m z w % O < = = i M.N.K.P.#.o.:XJ.D.D.A.FXcXm.o.@X}.|.#XK.;.` <.#.v.",
"#.P.2X1X) =XoX&XbX>X;Xl.k.l.fXCXzXzX8X8X9XkXY.aXs., * - m u.nXnX7XM < t r = r M.M.-.~ =.;.bXOXS.S.A.FXFXA.;.<X}.#X;XoXS.` <...#.",
"[.BX[.cXt.>XM.M.=X X=XN.+.+.g.;X:XgX!.).).CXkXyXa y - h wXMXaXmXsXxXb * 6 < < f hXjXK.h.#.:XD.v.v.C.>X.X;.G.4X3X}.>.:.=.o.o.T *.",
"[.FXcXFXt.>XA.oX1X|.oX;.+.x.H.jX:X:XV._._.lX8XY.u 3 3 h BXSXVXmXsXVXu.6 < < < f uXvX:Xm.! J.#.H.H.E.bX#XD.;.2X X.X=.;.=.X.o...F.",
"r.hXpXxXt.A.m.K.2X.Xn.! T x.h.&X&X^.g.C.I.kXY.5.e ; 2 N BXSXVXSXxXSXnXm , , e y a.;X^.@.D D. .f.k.W.AX#Xh.+.=X}.,...,.X.@.@.O.H.",
"O.V.Z.t.( @.o.m.-XM.-.! Y R  .C.E.C.^ l.k.9X6.g ; ; h qXBXNXSXSXVXNXMXu.s p d t Q e.@. .../.+.R g.Y.ZX#X#.%.&XN.o...o... .h.O.m.",
"f.k./ ) ~ #.#.S.-X|.A.o.T E  .C.V.E.g.C.U.kX6.r e , h ].[.].sXSXsXi.u.s.s s h y Q e.n.O.#.:Xc.b.j.R.bXR.f.%.*XM.#.%.D.X.X.V.h.D.",
"D.#.~ ~ ~ m.S.S.=X|.oX#...$...S.^.;XC.!.!.kXq.r e - q n b b p.VX%Xb d d 6 , d a j R.K.O.J J.z.~.!.(.AX#X&.x.=X>.,.<.L.o.@.S.x.x.",
"P.;.) ) -.;.;.;.=XM.N...T $.+.J.*X,XC.T.I.8XQ r e @ 2 B b b p.nXp.w.m c 9 : p d i Z.A.O.J F.E 4.f./.AX#X#.&.3X`.:.1.P.o.o.D.%.%.",
"P.:.) ) n.;.;.;.2X.Xm. .K $...J.^.;Xj.d.7.Y.Z t e @ c qX].i.wXsXp.dXeXu.c 8 9 y i t.V.#.&.:Xz.E R H.AX=X#.;.@X.X>.P.XX] Y &.E U ",
"Q.V.o.} 1.=.X.e.FX1XD.` ` { { T A.E.v.U.F W.g O 1 . u.FXSXwX[.FXxXdXcXJXn 8 1 s a 5.Y.d.x.-XF.K J jXvX;Xh.H.+X'.2.;.b.4.z.J.G } ",
"B.n.{ ` | =.@.n.%X%XJ.*.` H $...S.^.k.U.F 0Xu - 1 + w.NXZXdXi.yX%X%XxXBXc 1 % p p f r.O.x.L.*.I C ).lXW.h.D.XX'.>.P.~.4.v.v.G P ",
"R.H.$.{ ] '  .C.$X$XF.$.H H I E D./.#.z.d.I.r , + o M aXVXVXyXyXyXuXxXNXh 1 + , e f 8.d.+.*.I I Y :XAXfXO.X.`.'.>.L./.z.v.F.H P ",
"B.k.{ P ` _  .k.bX;X*.P H P I L #./.R +.l.q.t ; > O b wXsXaX0XyX0X0XsXdXp @ - 9 a f q.l.%.$.U E F.:XCX;Xh.,.>.'.2.OXJ.b.!.x.P P ",
"7.O.H G ` _  .h.bX;X+.U H P U G &.L.R R 4.A = < 8 o s 6XaXy.5.9.9.y.Q.wX2 - 1 p g i 6.f.+.E G *./.^.;Xr.H.jX+X'.>.L.U.b.!.x.H P ",
"j.h.K P ` ` D g.$X#X&.I H H U K o.P...+.3.g * < 7 # 6 7XaX9.w.9.0.y.Q.wX9 - @ 1 , r ( d.+.E G E x./.CXB.g.,X+X}.>.*Xb.b./.#.H P ",
"B.h.{ { | ]  ./ %X#XD.I H H U H [ o. .&.F t < : 7 # $ s.6Xa.pXQ.fXuXdXwX9 w @ @ ; r 5.^ +.E G E Y *XLXW.O.OX'.+X>.XX+.l.^.#.{ H ",
"A ( L P | =.O.g.CX#X..G H P I L _ W L f.F = < % k # . g s.6XSXpXCXhX[.u.@ @ w 7 3 u 5.d.+.%.U U  .^.AXR.C.bX+X>.2.N.Y f._.#.} H ",
"#.O.D  .m.m.m.! ;.S.D.o.L K ..&.T H.^ r.d - . 7 0 8 . $ n u.w.i.i.u.n 1   % & 8 6 ; f q.f.T G *.*.T o.[ ] 1.'.XXN.N.m.V./.L.&...",
"D.D.D ! @.m.S.@.-.S.,.Y C K *.c.b./.( Z =     q 7 5   * b w.5.m j d d O   % % 8 , e Z 7.f.T U c./.J.L.;.X.1.|.oX,X&Xj.8.C.k.#.D.",
"h.x.D D ! @.V.n.L.L.D.T V K *.c.x./.S f = X + 8 % > X < b [.].{.w.5.h 3 O > & > > y Z A g. .J J.!.!.lXjX=X=XM.e.#X$XR.j.Y.j.g.j.",
"h.m.! ! ! ! m.@.*X*XJ. .J U E z.O.T.Q r = O 1 : 5 > * < b [.%X[.[.i.w.y - > X o o y f Z 8.^ C k.8XT.&XA./ |.oX=Xn.E.C.B.T.h.d.g.",
"S.^.V.V.n./ n.! m.D.#.Y J L E R j.Y.f * X   1 5 > < < d m i.wX].i.B n 2 O > + 2 < 6 y g 5.0.6.T.(.0.h.~ ~ 1.+XXX;.S.g. .+.+.+.D.",
"g.V.C.A.C.n.n.~ n.m.#.D C L T Y 6.5.g O O   8 4 % O 9 u.wXBXBXcXwXwXu.h > > o 5 9 $ 6 < a w.6XaXT.j.^.K.G.+X:.=.,.P.D.&.x.&.+.c.",
"( B.e.Z.Z.e.Z.8.A.K.V. .C J J F f x l $ q # 0 4 0   s rXHXLXUXKXKXLXJX].l 5 . # 0 $ 0 4 $ M 7X7XSX0X$Xe.) :..XG.;.S.V.H.H.v.O.R ",
"Z.#XZ.Z.Z.e.Z.) Z.V.g.D V C J F 6X5Xl # 0 . 7 0 l . 5 7XGXPXUXKXKXKXPXqXv 0 # 4 0 # k 0 . k N M rX6XyXa.Q ) ~ ~ n.n.^ F 7.3.F 7.",
"( ~ W ' o.;.j.8.C.h.&.L V A m rXGXM 5 l o > 8 > 5 5 5 qXUXIXPXIXPXPXHXrXB % o % 1 + 2 8   : N qXM 5Xy.6./ S.x.C @.D 7.F ^ 7.S ^ ",
"r.n.o.o.,.S.V.B.E.H.,.' S 3.7XGXGXM 0 v o > : $ : $ 5 qXIXIXPXIXHXPXPXtXN 0 o $ 1 O 1 1 X 9 qXJXBXBX6XZ A @.S.D.#.^ g.O.7.j.^ g.",
";XoX,.&.,.J.!.B.;X*XOX .( Q.GXIXtXv q n $ % : > > $ : 5XUXIXIXIXJXIXIXHX5Xq % + 2 + > 8   $ N JXHXLXMXy.Q -.V.m.;.^ g.^ R d.D R ",
"^.^.D.&.,.L.E.Y.gX,X*X! ( yXGXIXrXM v M $ > + + $ $ $ 5XUXPXIXIXJXHXUXHXqXv > o 9 > 8 s $   v rXGXKXJXiXt.n.n.@.m.@.d.D F Y V V "
};
