/* XPM */
static char *_ad7330d5851485bf27aa172bd5cf634BwjRj2tLnfIqg6lq[] = {
/* columns rows colors chars-per-pixel */
"64 59 256 2 ",
"   c #0C0C0C",
".  c #080608",
"X  c #15090C",
"o  c #0E0D13",
"O  c #090917",
"+  c #120E14",
"@  c #170C17",
"#  c #0D1313",
"$  c #0A1618",
"%  c #131215",
"&  c #14141B",
"*  c #1B151C",
"=  c #141A1D",
"-  c #1B1A1D",
";  c #171616",
":  c #0C130E",
">  c #23171A",
",  c #2F1115",
"<  c #0B2C1D",
"1  c #1C1B23",
"2  c #1D1D2A",
"3  c #161823",
"4  c #0C1222",
"5  c #221D25",
"6  c #231D29",
"7  c #2B1C2F",
"8  c #0C2C23",
"9  c #1D212C",
"0  c #182926",
"q  c #0C3C2C",
"w  c #073826",
"e  c #13352B",
"r  c #123C2C",
"t  c #163429",
"y  c #1E2333",
"u  c #0E3D31",
"i  c #133C32",
"p  c #1A3934",
"a  c #23222B",
"s  c #282328",
"d  c #252533",
"f  c #2C2A36",
"g  c #2D2C3B",
"h  c #272837",
"j  c #332C39",
"k  c #233839",
"l  c #34323C",
"z  c #372726",
"x  c #22241F",
"c  c #472D2D",
"v  c #563A3B",
"b  c #4D3333",
"n  c #0B432C",
"m  c #05482A",
"M  c #03542C",
"N  c #044C31",
"B  c #0A4C33",
"V  c #0C4837",
"C  c #134232",
"Z  c #134C3C",
"A  c #174539",
"S  c #045334",
"D  c #0B543B",
"F  c #035D3B",
"G  c #0B5A3C",
"H  c #065637",
"J  c #12533B",
"K  c #135A3D",
"L  c #13432C",
"P  c #03643D",
"I  c #0B623D",
"U  c #04693B",
"Y  c #056835",
"T  c #20463B",
"R  c #293642",
"E  c #383747",
"W  c #3A3C53",
"Q  c #2A2C43",
"!  c #463C4A",
"~  c #663E44",
"^  c #1B4B44",
"/  c #1A4A45",
"(  c #0D5B43",
")  c #095843",
"_  c #145443",
"`  c #135C45",
"'  c #1C534B",
"]  c #195C4B",
"[  c #175948",
"{  c #185951",
"}  c #234948",
"|  c #24574A",
" . c #285854",
".. c #374C52",
"X. c #0B6343",
"o. c #0A6B45",
"O. c #0D644A",
"+. c #0C6B4A",
"@. c #056846",
"#. c #126C4D",
"$. c #146449",
"%. c #08744A",
"&. c #15734D",
"*. c #0D6C52",
"=. c #1B6454",
"-. c #136C53",
";. c #1A6954",
":. c #0B7954",
">. c #137253",
",. c #177859",
"<. c #266659",
"1. c #247255",
"2. c #1C7B62",
"3. c #286C63",
"4. c #287868",
"5. c #34736A",
"6. c #255B61",
"7. c #584648",
"8. c #464557",
"9. c #4F5256",
"0. c #664649",
"q. c #785757",
"w. c #6D5151",
"e. c #4E6C5A",
"r. c #59576B",
"t. c #4A4E63",
"y. c #715C64",
"u. c #6F6A73",
"i. c #5E656A",
"p. c #865957",
"a. c #855151",
"s. c #896769",
"d. c #966768",
"f. c #987778",
"g. c #937172",
"h. c #A87777",
"j. c #B67977",
"k. c #AE6E6B",
"l. c #9A5A58",
"z. c #C77174",
"x. c #C75E7C",
"c. c #088558",
"v. c #178459",
"b. c #06935B",
"n. c #06894E",
"m. c #0B8B62",
"M. c #188764",
"N. c #099666",
"B. c #169568",
"V. c #199C76",
"C. c #28876C",
"Z. c #298A72",
"A. c #279878",
"S. c #329778",
"D. c #2D896C",
"F. c #09A769",
"G. c #0AA975",
"H. c #18A778",
"J. c #0BB87B",
"K. c #17B77B",
"L. c #10AB6B",
"P. c #24A97B",
"I. c #28B27D",
"U. c #1B905F",
"Y. c #12C97B",
"T. c #768568",
"R. c #BA817B",
"E. c #AA817D",
"W. c #938279",
"Q. c #C6857C",
"!. c #737286",
"~. c #917988",
"^. c #AD7C85",
"/. c #C57A88",
"(. c #19B986",
"). c #14B182",
"_. c #25A985",
"`. c #26B888",
"'. c #34BB95",
"]. c #30B08E",
"[. c #379F84",
"{. c #5C9A97",
"}. c #1AC788",
"|. c #18CA93",
" X c #13CF8F",
".X c #23C789",
"XX c #26C996",
"oX c #38C997",
"OX c #28D69A",
"+X c #36CE93",
"@X c #2EE399",
"#X c #19DBA4",
"$X c #28D9A5",
"%X c #36DCA6",
"&X c #39D6A8",
"*X c #2BE5A9",
"=X c #38E8A9",
"-X c #39EAB4",
";X c #31E9B3",
":X c #1CE3A5",
">X c #47D9A5",
",X c #4BCDA1",
"<X c #45E7AA",
"1X c #4BEBB6",
"2X c #58EDB7",
"3X c #48F4B6",
"4X c #57F7BA",
"5X c #4CEDAC",
"6X c #66F6BC",
"7X c #70F2BD",
"8X c #47CC9B",
"9X c #5BF6C2",
"0X c #4BF4C5",
"qX c #69FAC7",
"wX c #77FACA",
"eX c #79FFD1",
"rX c #6AF7C9",
"tX c #93858F",
"yX c #A98687",
"uX c #B78788",
"iX c #BA8A93",
"pX c #BB9695",
"aX c #B7918E",
"sX c #908EA8",
"dX c #A49FB6",
"fX c #C68988",
"gX c #C7938C",
"hX c #C68A93",
"jX c #CB9494",
"kX c #CB9B9B",
"lX c #C79698",
"zX c #D49B9B",
"xX c #D7969A",
"cX c #D38B8E",
"vX c #E29098",
"bX c #D4A29E",
"nX c #CCA19C",
"mX c #CB9BA1",
"MX c #D69CA2",
"NX c #CDA3A5",
"BX c #D3A3A4",
"VX c #D9A6A9",
"CX c #DAAAB3",
"ZX c #DAB1B4",
"AX c #CBBBBC",
"SX c #E3A6AA",
"DX c #E7B0B8",
"FX c #E19AAC",
"GX c #CCB6CD",
"HX c #E2BAC3",
"JX c #86FBCD",
"KX c #87FED5",
"LX c #95FCD5",
"PX c #94FBCE",
"IX c #A1FBD7",
"UX c #B0AED3",
/* pixels */
"n 8 < S K.*X=X6X5Xb.L w w e e $.@.i e i _ -.-.C / '  .{ 3.=XJX1XC. . .=.<.2.P.Z.>.| ,.H.M.{ ] | *.M.).(.(.G.c.I K Y I D H G n. X",
"n.8 8 B b.U.K.5X4XL.n 8 8 r C $.*./ i p Z >.>.Z p .. .=.<.8XeX2XA.<.3.3.<.3.Z._.M.4.Z.Z.2.<.[ $.=.] >.b.N.H.B.&.I I Y J I c.+X6X",
"}.H 8 8 n m n.5X6XY.F t i u u $.,._ i p Z >.>.} } .. .=.<.'.wXwXoX2.3.3.6.3.4.A.P.D.B.M.,.&.<.+.=.[ v.(.%X5X=XOXN.%.Y K %.Y.;X6X",
"@X%.t < 8 8 K @XqX@Xo.r u w p [ -.O./ p } ,.,.} /  .6.6.5.].rXKX2XoX[.4.5.4.3.C.C.S.H.H.C.,.<.1.| ,..X2XqX4XeXJX@Xm.I I :.J.}.@X",
"3Xb.w t e w M .X6X=Xv.L C i p _ ;.*.{ p / ;.3.' } 6.6.5.[.0XKXPXrX&X'.4.3.5.5.4.P.>X5X5X<XI.U.v.1.U.<XwX<XJ.=XKXeXI.#.I @.:.%.J.",
"7XK.m t w w n I.4X3XL.A p A i V =.>.;.' ] 2.;.' ..6.5.5.[.[._ 8 3 $ R R e p 3.'.6X7XeXJXJX5XI.v.,.K.qXeXOXb.I.wXKX<Xn.U F S Y N.",
"6X.XS t 8 r L B.4X4XK.K n V A i ' =.3.3.;.3. .| } k 1 & O . . . . X . X > X 4 <.7XJX2X6XPXJX<XU.1.`.eXKX+X&.b.=XKX4XL.o.P G P n.",
"qXOXH t t t r c.2X6X@XH.,._ A R / ) =.<.=.=. .| 0 .   :   X % %   & > * : : o X | 6X.X+X7XPX6XI.M.`.qXLX@Xv.v.%XKXwXI.X.I I H %.",
"qX}.Z e i e @.}.4XwX0X=XK.$.Z A / } ' } ;.5.' = % : ; ; + 5 * % o & o % %   ; : > S.+XS.2XLXwX8XM.].wXLX5XU.v..XeXKX X%.I #.Y U ",
"4XH.V e p T M.OX=X=XOXH.M.Z A } / / } 2.'.].p   ; -   . + & # - = .   % % ; % = % $ v.P.5XJXPX5XS.H.9XLX4XL.1.K.qXJX+X&.I I I o.",
"@X:.i e e V #.M.v.m.M.*.[ Z R Z } { 5.XXqX[.; ; + ;   + + o % : & & & # o & * o x > z H.oXJXIX5XP.U.1XLXwX.Xv.K.rXeXXX&.Y I +.c.",
"c.C e i q q i Z v.L._.H.M.{ } ' / 3.].$X0X .@ >   ;     = % : X o 1 % & & % 3 1 s s > B 8X7XPX6XI.D.oXJXJX>XB.`.rXeX.Xo.U I :.}.",
"V t p r e p p ,.(.).).OXXX_./ / ' 3._._.D.: X X . : X % % s x z > * * + o - - 9 5 3 1 . D.wXPX6X].D.P.9XPXrX+X=XqX6XH.U &.I %.G.",
"$.] C p p p / (.XX2._ V.;XXX3./ } { { ;.t . : X X > b v , c ~ 0.v 7.7.c X X 1 3 = s > * # 8XIX2XS.5.D.'.qXeXrX6X3X`.c.o.+.I X.@.",
":.,.$.C p e O.XX X>.i <.XX$XV.' R  .| r X     > c a.d.d.a.w.a.d.d.h.h.h.w.> > s 3 * * * : A JX,XS.D.5.Z.'.>X>X&X}.B.>.&.X.I $.X.",
"$.v.,._ i i ,.XX$X,.A _ _.;XXX` | } } %   : X b k.k.k.z.R.R.fXQ.fXfXfXfXgXs.7 ; & = a - = s >X+X5.4.C.4.4.B.L.}.}.M.-.%.O.o.@.Y ",
"A -.m.#.C e ;.OX$XM.i A Z.;XXX2.R { p o     % q.z.k.R.cXgXxXgXjXjXlXjXgXjXzXh.b > 5 = = $ @ Z.[.Z.4.5.C.2.M.oX9XrX(.%.&.X.+.X.%.",
"e $.M.,.A r $.XX:XV._ A 4.$XOX2.} { } %   & z d.j.fXzXSXzXzXzXkXMXBXVXCXVXBXBXlXv z > 5 O 4 4.Z.5.5.5.4.M.'.1XKXeXXX:.+.O.+.@.@.",
"e J v.v.V p _ `.*X_.[ A *.OX$XC./ |  .9 X - c j.Q.jXDXDXSXSXBXkXMXCXZXZXCXCXDXVX^.0.- 5 *  ._.5.4.5.4.2._.%X1XwXKX<Xv.+.+.@.+.%.",
"r V ,.m.G i V V.%XXX-.A ;.OX$XM./ / { p : ; c z.fXzXVXZXVXBXBXnXkXCXZXZXZXZXZXVXzXh.z 5 d ].].4.4.4.2.4.Z.`.(.<XeX2XB.+.+.) @.%.",
"e r >.m.( C i >.$X$XB./ <.|.|.,.} } ] p : : b j.fXkXVXVXBXzXMXmXBXVXmXmXCXCXVXVXxXE.z - Q |.'.Z.4.4.4.3.2.,.c.+XeXqXP.%.+.@.@.o.",
"8 e X.>.D i e Z H.$X).2.B.(._.[ / } ' k X X ~ Q.fXjXlXpXlXjXMXkXNXkXjXmXCXNXZXVXSXuXc s R _.].4.3.3.3.3.=.=.#.I.9X6XH.o.X.X.X.P ",
"w q X.>.V u e u { G.).).).V.;.A / / [ t . z k.k.w.q.7.7.q.g.lXNXmXmXiXiX~.s.f.yXzXjXv > R _._.2.<.=. .{ =.] $.v.=X2XK.P H D H S ",
"B Z :.,.D u i u p *.M.V.B.-._ _ ' / ;.t : b Q.l.d.f.y.7.~ q.iXVXmXmX^.9.! 7.y.y.s.kXp.: } [._.C.3.=.6.=.{ ] $.:.%XrXXX>.( J D G ",
"+.$.:.G n n C i i Z Z ( B.H.2._ } 6.*.7.. ~ Q.h.fXd.q.v 7.y.j.cXmXlXd.~ ~ s.~./.f.aXg.; } _.'.).2.3.<.<.=.$.#.>.#XrX<Xc.I I H I ",
"P D D r e q i V Z q J V.%X-X_.$.^ { | d.z ~ Q.gXj.a.s.> 0.p.j.xXVXkXp.c , w.q.k.lXzXs.> s.S.'._.<.<.=.=.$.[ $.#..XrX2XK.m.#.D H ",
"S O.%.O.Z m q C C Z B.%X9XeXoX-.J ) 7.z.d.p.cXxXjXkXuXs.d.d.j.fXxXMXh.q.! ~.g.^.BXVXy.v /.5.`._.<.=.<.{ { ] >.V.oXeXqX;X Xn.I D ",
"2.G.).(.H.+.n n C &.XX=X4XwX%Xc.J G 7.x.k.R.Q.jXbXjXiXuXfX/.fXcXjXxXhXd.k.iXlXmXVXSXd.f.FX5.`.`.M.>.$.] ] ` :.(.=X=X$X}.B.$.H H ",
"|.G.m..X:X).( q N o.V.B.OXwX2Xm.K Z | k.l.Q.fXzXVXjXjXcXxXxXxXfXxXSXFXMX/.lXhXVXCXVXj.lXhX5.(.(.).m.;.=._ ( O.M.N.B.b.:.P S S H ",
" X:.m m.#X#Xm.r q B K G I.4X4XG.K _ I d.k.Q.fXbXSXMXFXMXvXxXz.cXMXMXCXBXmXmXmXMXCXkXgXxXyXM._.).Z.2.;.` ` ` D ( G c.}.G.X.S H S ",
"#X*.8 ) `.;XH.N q n S B B.3XqX}.K _ ) i.vXQ.fXbXDXDXSXxXcXj.hXxXMXxXmXmXCXCXCXDXSXlXlXMXu.c.2.,.;.$.` ) G J D F N.|.-X=X:.M M L ",
"XX:.w w _.;X X@.C i N n %.<XwXOX&.J Z  .vXk.gXvXHXDXSXhXk.fXMXFXDXFXmXmXMXCXHXHXCXjXkXmX<.*.=.-.;.$.$.X.K J ` ,.(.#X1X-Xm.B I H ",
"*Xb.w w :.-X#X:.w C B N ` oXwX*Xn.J Z _ e.T.Q.nXMXVXiXiXhX^.^./.VXlXmXlX^.MXCXCXbXlXSX~.` *.>.*.*.>.*.O.D J X.,.G.G.$X-XH.M F N ",
";XB.n w *.OX$Xc.n q r q ( }.qX1XF.G J Z Y v.gXgXxXjXfXlXiX^.d.l.g.iXmXmXhXmXmXlXbXyXe.$.$.,.>.] O.-.>.O.G Z ( +.@.%. X0X(.D H Z ",
";X).S w @.|.*Xb.u w u C G K.rX6X+XF.%.J J | R.gXzXlXlX^.mXiX^.s.~.yXyXiXpXkXmXjXMXu.) O.-.:.-.[ ( $.>.*.G D D H J S J.0XXXo.M S ",
"$X$X*.8 ) |.$X:.V w m H m.OXqXwX-XXXv.S G A d.xXlXzXh.a.d.iX^.^.^./.iX~.g.BXBXxXmXe.(  .$.:.*.` _ ( +.:.X.D V D D H N.3X$X%.M F ",
"|.$X_.V *.|.|.+.q w q F G. XOX|.(.M.@.A ) N i.Q.fXbXgXfXk./.CXAXHXmXiXd.d.zXnXzXuX` ` | @.,.-.( ( G o.:.X.D Z D S H v.;X-Xb.m H ",
"N.#X|.).G. XN.H m w n N #.:.b.N.m.@.S n V N | k.fXfXbXVXMX/./.x.^./.xXSXxXkXnXnXu.) ( ( *.#.>.D ) D @.:.o.H ) D _ S o.#X3XG.N V ",
"m N.).).F.b.U m n w n n m +.N.H.).).m.) C B Y W.j.Q.gXnXzXfXd.y.^.hXVXbXnXnXlXh.( D _ ` ( o.&.O.G D X.%.o.D D S Z M P  X0X|.c.X.",
"8 N @.m.L.F.F.%.H n n m ) G. XN.G. X Xv.n m Y W.Q.j.gXnXMXhXj.d.^.MXbXbXnXgXaXyX@.Z [ J D +.-.@.D ) ) +.$.D ) H S I c.XX0X*XJ.m.",
"w m n. X=X5X=X Xn.M M L v. XG.F D ).#X).F ) V 0.Q.R.k.ZXVXbXzXSXDXmXVXVXpXgXbXf.H [ D J D G *.@.H F I +.X.D B D D *.J.|.$X|.G.c.",
"m %.@X6X5X3X7X4XY.n.M m N.#X).N w N.$X|.:.V < p.Q.R.k.R.bXbXnXkXCXCXVXiXaXbXbXf.w u B G G F +.+.` ` I I D H H D F @.b.m.m.( ) H ",
"m F.4X6X XY.5X7X4XL.M m H.$X).N q %.$X|.G 0 3 f.Q.R.gXh.p.d.l.d.h.f.E.gXBXVXgXpXh & 0 t C V ( X.X.X.I G H B B H S N D P @.%.%.F ",
"m Y.wX5XL.Y Y.7X7XY.Y L N.*X X) w P ( 0 X   k uXk.Q.R.gXR.W.d.f.f.yXkXNXBXbXkXpX9.@ * X ; 3 3 0 H D H G S B S N L N P %.+.%.c.:.",
"Y Y.7X4XL.Y b.5X7X@Xb.M m.;XXX$.8 - X   % O l yXR.fXgXQ.R.aXkXBXNXpXlXMXBXbXbXyXi.4 1 # # + X @ + = q B N N B m N S %.c.@.M P c.",
"Y Y.7X6XY.M n.@XwX4XF.M @.M.| * - @ + @ @ * k tXd.gXfXQ.R.E.h.aXpXlXBXkXkXxXgXtX!.4 a % $ & $ $ % o % X % = q n N S %.n.F m F %.",
"L I.7X7XY.Y Y Y.wX,X&.s 2 1 @ % % 1 $ : 3 6 @ tXb lXjXfXgXaXh.k.aXpXkXkXnXbXs.dX!.4 7 @ @ 3 1 3 * & % # o o o O 8 N :.c.H m S P ",
"m L.7X7XY.n.Y I.<.$ X @ $ 3 6 $ * 6 * # 3 d O i.y.b gXQ.uXuXyXh.uXaXkXlXlXaXb dX!.O d 4 & 3 2 6 & o o o + % % + + + B c.U m m I ",
"< n.@XJX&XD = X   : % * 3 * 3 3 = - - % * f 1 1 dXj 0.R.aXR.h.h.h.aXpXlXjXw.2 GX8.& 2 & + & 3 2 2 3 @ + % + & 3 & o @ / @.M m D ",
"< Y +XD.< X # - % % % % % 3 1 5 a 5 1 & o 1 1 o !.sX5 w.h.R.uXuXuXuXpXpXh.7 Q GXh 6 Q 6 3 * 1 3 2 2 1 2 - * & & 2 3 1 8 G M n N ",
"w m L X # 3 o * & & & & = 1 5 6 1 1 3 1 3 s j - Q sXu.7 w.d.d.^.yXaXyX^.0.. 8.dX4 j g 6 & 6 a 2 * 3 1 1 1 1 6 2 3 2 9 3 r N n N ",
"w = : , 3 @ 2 = % * 3 1 5 a 5 3 3 6 * 2 a f h 1 Q ! sXt.7 u.yXs.d.f.^.s.* 4 r.~.o E g 2 & d d d 1 3 * % * 1 9 6 6 y 9 6 d V m N ",
"m ; > 0 3 1 = > a a 1 1 1 5 1 1 6 a 3 6 s l g a W Q W sXE O w.s.s.s.h.z 3 4 i.r.+ j E 3 3 2 9 g 6 1 3 5 5 2 2 2 d y h h j A @.H ",
"< ; a a 1 6 9 5 a a 1 - 3 a a a d 6 d a a E E a j ! W r.E O i.9.y.yXq.X R 4 Q j 3 a Q 6 3 2 y h 2 2 3 2 7 h h h 9 d Q R h R @.X.",
"x s d j j 6 9 a 1 1 1 1 6 a h f d 6 d s a g ! a 6 d W W 2 . l E 5 s., s W R O % a 5 g d 3 2 d h d d 3 2 d E E Q Q E W W E 8.V F ",
"- l E k E j d s a s a a a d j g d d d f E d E j 2 g Q j y 2 O . 5 q., 5 !.sXO - - 9 j E 4 2 h h h h d 2 Q 8.t.W W ! r.r.r.t.k P ",
"a h 8.! 8.E g d a h d 2 a d l g a a d ..j f 8.E a = a 9 y h y h 3 ! c c UXtX$ 3 ; - 8.W @ 1 h g Q h y 2 Q 8.W Q t...g 8.8.t.} ).",
"d l 8.9.~.r.E Q g E l s h f E j d 9 d 8.E f 8.E g 1 5 d 3 h y y y 7 s.r.dX!.- d j 3 8...& 3 Q g g h d h Q t...Q W Q 2 Q E t.t.oX",
"l s 8.W E f 9.! E W E h h g E j d 9 h 9.E d ! ! E s 9 g O y 2 2 y y 0.GXsX8.% b 7.1 8.8.& 3 E g Q h h E Q t.t.Q h y 2 h ! t.t.S."
};
